<svg width="80" height="80" viewBox="0 0 80 80" fill="none" xmlns="http://www.w3.org/2000/svg">
<g clip-path="url(#clip0_1_1360)">
<rect x="36" y="47" width="40" height="17" fill="#EB00FF"/>
<rect x="16" y="8" width="20" height="28" fill="#EB00FF"/>
<path d="M51.7812 35.5156L51.7188 7.01562C51.7188 3.14062 48.5625 0 44.7031 0H7.03125C3.15625 0 0 3.15625 0 7.03125V35.4688C0 39.3438 3.15625 42.5 7.03125 42.5H11.875V47.1875C11.875 49.1094 14.0781 50.2188 15.625 49.0625L24.375 42.5L44.7344 42.5625C48.6875 42.5625 51.7969 39.375 51.7812 35.5156ZM25.7812 32.9688C24.4844 32.9688 23.4375 31.9219 23.4375 30.625C23.4375 29.3281 24.4844 28.2812 25.7812 28.2812C27.0781 28.2812 28.125 29.3281 28.125 30.625C28.125 31.9219 27.0781 32.9688 25.7812 32.9688ZM28.2812 23.1875V23.4375C28.2812 24.7344 27.2344 25.7812 25.9375 25.7812C24.6406 25.7812 23.5938 24.7344 23.5938 23.4375V21.9688C23.5938 20.4219 24.75 19.0938 26.2656 18.875C27.4062 18.7188 28.2812 17.7188 28.2812 16.5469C28.2812 14.8438 26.4062 13.375 24.25 14.75C23.1562 15.4531 21.7031 15.125 21.0156 14.0312C20.3125 12.9375 20.6406 11.4844 21.7344 10.7969C24.1562 9.25 26.9844 9.09375 29.3281 10.375C31.5625 11.625 32.9688 13.9844 32.9688 16.5625C32.9688 19.5781 31.0312 22.2188 28.2812 23.1875Z" fill="#7F38FF"/>
<path d="M51.2812 35.5167L51.2813 35.5177C51.2958 39.1018 48.4089 42.0625 44.7344 42.0625L24.3765 42L24.209 41.9995L24.075 42.1L15.3256 48.662C15.3255 48.6621 15.3254 48.6622 15.3252 48.6623C14.1084 49.5714 12.375 48.6979 12.375 47.1875V42.5V42H11.875H7.03125C3.43239 42 0.5 39.0676 0.5 35.4688V7.03125C0.5 3.43239 3.43239 0.5 7.03125 0.5H44.7031C48.2871 0.5 51.2188 3.41749 51.2188 7.01562V7.01672L51.2812 35.5167ZM26.1978 18.3796L26.1942 18.3801C24.4324 18.6344 23.0938 20.1735 23.0938 21.9688V23.4375C23.0938 25.0105 24.3645 26.2812 25.9375 26.2812C27.4786 26.2812 28.7295 25.0616 28.7797 23.533C31.5486 22.4055 33.4688 19.6711 33.4688 16.5625C33.4688 13.801 31.9626 11.2759 29.5722 9.93864L29.5723 9.93862L29.568 9.93628C27.0503 8.55998 24.0279 8.73939 21.4668 10.3745C20.1399 11.2097 19.742 12.9721 20.5937 14.2995C21.4292 15.6262 23.1921 16.0238 24.5194 15.1712C25.4624 14.5701 26.2738 14.6229 26.8323 14.9317C27.4109 15.2516 27.7812 15.8767 27.7812 16.5469C27.7812 17.4708 27.0889 18.2576 26.1978 18.3796ZM22.9375 30.625C22.9375 32.198 24.2082 33.4688 25.7812 33.4688C27.3543 33.4688 28.625 32.198 28.625 30.625C28.625 29.052 27.3543 27.7812 25.7812 27.7812C24.2082 27.7812 22.9375 29.052 22.9375 30.625Z" stroke="url(#paint0_linear_1_1360)" stroke-opacity="0.5"/>
<path d="M72.9688 32.9688H56.4688V35.5156C56.4844 41.2969 52.3438 46 47.0312 47.0313H68.125C69.4219 47.0313 70.4688 48.0781 70.4688 49.375C70.4688 50.6719 69.4219 51.7188 68.125 51.7188H40C38.7031 51.7188 37.6562 50.6719 37.6562 49.375C37.6562 48.4219 38.2344 47.5938 39.0469 47.2344L28.2812 47.2031V68.2813C28.2812 72.1563 31.4375 75.3125 35.3125 75.3125H51.1719L60.0469 79.75C61.5937 80.5313 63.4375 79.3906 63.4375 77.6563V75.3125H72.9688C76.8438 75.3125 80 72.1563 80 68.2813V40C80 36.125 76.8438 32.9688 72.9688 32.9688ZM68.125 61.0938H40C38.7031 61.0938 37.6562 60.0469 37.6562 58.75C37.6562 57.4531 38.7031 56.4063 40 56.4063H68.125C69.4219 56.4063 70.4688 57.4531 70.4688 58.75C70.4688 60.0469 69.4219 61.0938 68.125 61.0938Z" fill="#0094FF"/>
<path d="M37.6819 47.7304C37.3518 48.1951 37.1562 48.7635 37.1562 49.375C37.1562 50.948 38.427 52.2188 40 52.2188H68.125C69.698 52.2188 70.9688 50.948 70.9688 49.375C70.9688 47.802 69.698 46.5313 68.125 46.5313H50.0935C54.1336 44.5684 56.9817 40.4131 56.9688 35.515C56.9688 35.5148 56.9687 35.5145 56.9687 35.5143L56.9688 33.4688H72.9688C76.5676 33.4688 79.5 36.4011 79.5 40V68.2813C79.5 71.8801 76.5676 74.8125 72.9688 74.8125H63.4375H62.9375V75.3125V77.6563C62.9375 79.0205 61.4844 79.9159 60.2723 79.3037L60.2705 79.3028L51.3955 74.8653L51.2899 74.8125H51.1719H35.3125C31.7136 74.8125 28.7812 71.8801 28.7812 68.2813V47.7046L37.6819 47.7304ZM40 61.5938H68.125C69.698 61.5938 70.9688 60.323 70.9688 58.75C70.9688 57.177 69.698 55.9063 68.125 55.9063H40C38.427 55.9063 37.1562 57.177 37.1562 58.75C37.1562 60.323 38.427 61.5938 40 61.5938Z" stroke="url(#paint1_linear_1_1360)" stroke-opacity="0.5"/>
</g>
<defs>
<linearGradient id="paint0_linear_1_1360" x1="25.8907" y1="0" x2="25.8907" y2="49.5328" gradientUnits="userSpaceOnUse">
<stop stop-color="white"/>
<stop offset="1" stop-color="#1E1E1E" stop-opacity="0"/>
</linearGradient>
<linearGradient id="paint1_linear_1_1360" x1="54.1406" y1="32.9688" x2="54.1406" y2="80.0007" gradientUnits="userSpaceOnUse">
<stop stop-color="white"/>
<stop offset="1" stop-color="#1E1E1E" stop-opacity="0"/>
</linearGradient>
<clipPath id="clip0_1_1360">
<rect width="80" height="80" fill="white"/>
</clipPath>
</defs>
</svg>
