<svg width="80" height="80" viewBox="0 0 80 80" fill="none" xmlns="http://www.w3.org/2000/svg">
<g clip-path="url(#clip0_321_2036)">
<path d="M72.2969 7.70312C62.0156 -2.57812 45.2969 -2.57812 35.0156 7.70312C24.7344 17.9844 24.7344 34.7031 35.0156 44.9844C45.2969 55.2656 62.0156 55.2656 72.2969 44.9844C82.5625 34.7187 82.5625 17.9844 72.2969 7.70312ZM44.4531 13.9844H63.625V18.7812H44.4531V13.9844ZM44.4531 23.5625H63.625V28.3594H44.4531V23.5625ZM44.4531 37.9531V33.1562H56.4375V37.9531H44.4531Z" fill="#0094FF"/>
<path d="M44.4531 23.5625H63.625V28.3594H44.4531V23.5625Z" fill="#0094FF"/>
<path d="M44.4531 37.9531V33.1562H56.4375V37.9531H44.4531Z" fill="#0094FF"/>
<path d="M44.4531 13.9844H63.625V18.7812H44.4531V13.9844Z" fill="#0094FF"/>
<path d="M44.4531 23.0625H43.9531V23.5625V28.3594V28.8594H44.4531H63.625H64.125V28.3594V23.5625V23.0625H63.625H44.4531ZM43.9531 37.9531V38.4531H44.4531H56.4375H56.9375V37.9531V33.1562V32.6562H56.4375H44.4531H43.9531V33.1562V37.9531ZM44.4531 13.4844H43.9531V13.9844V18.7812V19.2812H44.4531H63.625H64.125V18.7812V13.9844V13.4844H63.625H44.4531ZM35.3692 8.05668C45.4552 -2.02931 61.8573 -2.02931 71.9433 8.05668C82.0139 18.1429 82.0134 34.5607 71.9433 44.6308C61.8573 54.7168 45.4552 54.7168 35.3692 44.6308C25.2832 34.5448 25.2832 18.1427 35.3692 8.05668ZM44.9531 27.8594V24.0625H63.125V27.8594H44.9531ZM55.9375 37.4531H44.9531V33.6562H55.9375V37.4531ZM44.9531 18.2812V14.4844H63.125V18.2812H44.9531Z" stroke="url(#paint0_linear_321_2036)" stroke-opacity="0.5"/>
<path d="M2.8125 63.6406C-0.9375 67.3906 -0.9375 73.4531 2.8125 77.2032C6.5625 80.9532 12.625 80.9532 16.375 77.2032L29.9375 63.6406L16.375 50.0781L2.8125 63.6406Z" fill="#843EFF"/>
<path d="M3.16605 76.8496C-0.388685 73.2949 -0.388685 67.5489 3.16605 63.9942L16.375 50.7852L29.2304 63.6406L16.0214 76.8496C12.4667 80.4043 6.72079 80.4043 3.16605 76.8496Z" stroke="url(#paint1_linear_321_2036)" stroke-opacity="0.5"/>
<path d="M28.4844 44.7344L23.1406 50.0781L29.9219 56.8594L35.2656 51.5156C32.7656 49.6875 30.4531 47.4063 28.4844 44.7344Z" fill="#0094FF"/>
<path d="M23.8477 50.0781L28.4304 45.4954C30.2262 47.8447 32.2864 49.8844 34.5033 51.5708L29.9219 56.1523L23.8477 50.0781Z" stroke="url(#paint2_linear_321_2036)" stroke-opacity="0.5"/>
<path d="M44 23H64V28.5H44V23Z" fill="black"/>
<path d="M44 23H64V28.5H44V23Z" fill="#EB00FF"/>
<path d="M44 13H64V18.5H44V13Z" fill="#EB00FF"/>
<path d="M44 32.5H57V38H44V32.5Z" fill="#EB00FF"/>
</g>
<defs>
<linearGradient id="paint0_linear_321_2036" x1="53.6504" y1="-0.0078125" x2="53.6504" y2="52.6953" gradientUnits="userSpaceOnUse">
<stop stop-color="white"/>
<stop offset="1" stop-color="#1E1E1E" stop-opacity="0"/>
</linearGradient>
<linearGradient id="paint1_linear_321_2036" x1="14.9688" y1="50.0781" x2="14.9688" y2="80.0157" gradientUnits="userSpaceOnUse">
<stop stop-color="white"/>
<stop offset="1" stop-color="#1E1E1E" stop-opacity="0"/>
</linearGradient>
<linearGradient id="paint2_linear_321_2036" x1="29.2031" y1="44.7344" x2="29.2031" y2="56.8594" gradientUnits="userSpaceOnUse">
<stop stop-color="white"/>
<stop offset="1" stop-color="#1E1E1E" stop-opacity="0"/>
</linearGradient>
<clipPath id="clip0_321_2036">
<rect width="80" height="80" fill="white"/>
</clipPath>
</defs>
</svg>
