<svg width="6" height="9" viewBox="0 0 6 9" fill="none" xmlns="http://www.w3.org/2000/svg">
<path d="M1.60355 0.396447C1.40829 0.201184 1.09171 0.201184 0.896446 0.396447C0.701184 0.591709 0.701184 0.908291 0.896446 1.10355L1.60355 0.396447ZM4.75 4.25L5.10355 4.60355C5.29882 4.40829 5.29882 4.09171 5.10355 3.89645L4.75 4.25ZM0.896447 7.39645C0.701184 7.59171 0.701184 7.90829 0.896447 8.10355C1.09171 8.29882 1.40829 8.29882 1.60355 8.10355L0.896447 7.39645ZM0.896446 1.10355L4.39645 4.60355L5.10355 3.89645L1.60355 0.396447L0.896446 1.10355ZM4.39645 3.89645L0.896447 7.39645L1.60355 8.10355L5.10355 4.60355L4.39645 3.89645Z" fill="#AC80FF"/>
</svg>
