<svg width="73" height="66" viewBox="0 0 73 66" fill="none" xmlns="http://www.w3.org/2000/svg">
<path d="M59.7273 0L43.1364 14.85V51.15L59.7273 36.3V0ZM18.25 9.9C11.7795 9.9 4.81136 11.22 0 14.85V63.228C0 64.053 0.829545 64.878 1.65909 64.878C1.99091 64.878 2.15682 64.647 2.48864 64.647C6.96818 62.502 13.4386 61.05 18.25 61.05C24.7205 61.05 31.6886 62.37 36.5 66C40.9795 63.195 49.1091 61.05 54.75 61.05C60.225 61.05 65.8659 62.073 70.5114 64.548C70.8432 64.713 71.0091 64.647 71.3409 64.647C72.1705 64.647 73 63.822 73 62.997V14.85C71.0091 13.365 68.8523 12.375 66.3636 11.55V56.1C62.7136 54.945 58.7318 54.45 54.75 54.45C49.1091 54.45 40.9795 56.595 36.5 59.4V14.85C31.6886 11.22 24.7205 9.9 18.25 9.9Z" fill="white"/>
</svg>
