<svg width="198" height="63" viewBox="0 0 198 63" fill="none" xmlns="http://www.w3.org/2000/svg">
<path opacity="0.1" d="M6.31276 56.21L1 52.7067V60.3244C1 60.8767 1.44772 61.3244 2 61.3244H197C197.552 61.3244 198 60.8767 198 60.3244V32.9576L194.807 40.5366C194.72 40.7443 194.565 40.9163 194.367 41.0248L189.701 43.5888C189.165 43.8835 188.492 43.6318 188.281 43.0575L183.599 30.3211C183.454 29.9276 183.079 29.6661 182.66 29.6661H178.752C178.323 29.6661 177.941 29.3922 177.804 28.9855L175.273 21.4755C175.025 20.7367 174.063 20.5543 173.561 21.1506L171.678 23.3857C171.488 23.6113 171.208 23.7414 170.913 23.7414H161.096C160.86 23.7414 160.63 23.6573 160.45 23.5042L157 20.5791C156.519 20.1715 155.785 20.305 155.479 20.8559L149.834 31.0082C149.414 31.7628 148.3 31.6667 148.016 30.8514L142.215 14.2114C142.137 13.9889 141.983 13.8009 141.781 13.6807L135.753 10.1031C135.55 9.98296 135.312 9.93809 135.08 9.97638L128.074 11.1313C127.694 11.1939 127.312 11.0332 127.092 10.7181L122.274 3.83496C121.878 3.26936 121.042 3.26553 120.641 3.82749L114.341 12.6556C113.928 13.2339 113.061 13.2095 112.681 12.6089L111.02 9.97927C110.621 9.34821 109.696 9.36069 109.315 10.0023L104.46 18.1667C104.049 18.857 103.033 18.8062 102.694 18.0785L96.4966 4.79712C96.1243 3.99938 94.9774 4.03709 94.6583 4.85756L89.0992 19.154C88.9498 19.5384 88.5796 19.7916 88.1672 19.7916H84.8629C84.4573 19.7916 84.0919 20.0365 83.9378 20.4117L75.6177 40.6692C75.5668 40.7933 75.4913 40.9059 75.396 41.0002L65.5498 50.7393C65.1785 51.1066 64.587 51.1263 64.1921 50.7845L59.985 47.1432C59.7252 46.9184 59.3681 46.8427 59.0394 46.9427L51.4978 49.2379C51.1401 49.3468 50.8731 49.6461 50.8055 50.0138L49.735 55.8373C49.6478 56.3119 49.2341 56.6565 48.7515 56.6565H42.7408C42.4389 56.6565 42.1532 56.5201 41.9633 56.2853L35.0172 47.6971C34.6293 47.2176 33.904 47.2001 33.4935 47.6603L24.9466 57.2414C24.5841 57.6478 23.963 57.6894 23.5495 57.335L15.0101 50.0146C14.6149 49.6759 14.026 49.6968 13.656 50.0629L7.56649 56.0861C7.2304 56.4186 6.70742 56.4702 6.31276 56.21Z" fill="url(#paint0_linear_27_101)"/>
<path d="M1 52.7067L6.31276 56.21C6.70742 56.4702 7.2304 56.4186 7.56649 56.0861L13.656 50.0629C14.026 49.6969 14.6149 49.6759 15.0101 50.0146L23.5495 57.335C23.963 57.6894 24.5841 57.6478 24.9466 57.2414L33.4935 47.6603C33.904 47.2001 34.6293 47.2176 35.0172 47.6972L41.9633 56.2853C42.1532 56.5201 42.4389 56.6565 42.7408 56.6565H48.7515C49.234 56.6565 49.6478 56.3119 49.735 55.8373L50.8055 50.0138C50.8731 49.6461 51.1401 49.3468 51.4978 49.2379L59.0394 46.9427C59.3681 46.8427 59.7252 46.9184 59.985 47.1432L64.1921 50.7845C64.587 51.1263 65.1785 51.1066 65.5498 50.7393L75.3959 41.0002C75.4913 40.9059 75.5668 40.7933 75.6177 40.6692L83.9378 20.4117C84.0919 20.0365 84.4573 19.7916 84.8629 19.7916H88.1672C88.5796 19.7916 88.9498 19.5384 89.0992 19.154L94.6583 4.85756C94.9774 4.03709 96.1243 3.99938 96.4965 4.79712L102.694 18.0785C103.033 18.8062 104.049 18.857 104.459 18.1667L109.315 10.0023C109.696 9.36069 110.621 9.34821 111.02 9.97927L112.681 12.6089C113.061 13.2095 113.928 13.2339 114.341 12.6556L120.641 3.82749C121.042 3.26553 121.878 3.26936 122.274 3.83496L127.092 10.7181C127.312 11.0332 127.694 11.1939 128.074 11.1313L135.079 9.97638C135.312 9.93809 135.55 9.98296 135.753 10.1031L141.781 13.6807C141.983 13.8009 142.137 13.9889 142.215 14.2114L148.016 30.8514C148.3 31.6667 149.414 31.7628 149.834 31.0082L155.479 20.8559C155.785 20.305 156.519 20.1715 157 20.5791L160.45 23.5042C160.63 23.6573 160.86 23.7414 161.096 23.7414H170.913C171.208 23.7414 171.488 23.6113 171.678 23.3857L173.561 21.1506C174.063 20.5543 175.024 20.7367 175.273 21.4755L177.804 28.9855C177.941 29.3922 178.323 29.6661 178.752 29.6661H182.66C183.079 29.6661 183.454 29.9276 183.599 30.3211L188.281 43.0575C188.492 43.6318 189.165 43.8835 189.701 43.5888L194.299 41.0625C194.537 40.9314 194.712 40.7086 194.783 40.4456L196.827 32.8379" stroke="#30E0A1" stroke-linecap="round"/>
<path opacity="0.1" d="M8.42037 53.5904H1V62C1 62.5523 1.44772 63 2.00001 63H197C197.552 63 198 62.5523 198 62V3.50431L190.061 10.6763C189.543 11.1442 188.717 10.9509 188.461 10.3016L185.036 1.63261C184.886 1.25084 184.517 1 184.106 1H173.698C173.488 1 173.283 1.06617 173.113 1.18911L165.979 6.33742C165.72 6.52424 165.388 6.57623 165.084 6.47735L156.828 3.78788C156.335 3.62738 155.801 3.86984 155.598 4.3465L149.297 19.1261C149.028 19.7557 148.221 19.9357 147.71 19.4796L141.17 13.636C140.727 13.2403 140.039 13.3156 139.692 13.7977L139.045 14.6967C138.755 15.1002 138.212 15.2292 137.771 14.9994L134.464 13.2757C134.04 13.0548 133.519 13.1647 133.221 13.5381L128.098 19.9463C127.87 20.2313 127.505 20.3696 127.146 20.3071L121.312 19.2936C120.85 19.2134 120.394 19.4649 120.216 19.8986L113.497 36.2402C113.382 36.5221 113.143 36.7358 112.851 36.8205L103.153 39.6284C102.761 39.7421 102.338 39.6052 102.087 39.2826L95.5158 30.8525C95.1057 30.3263 94.305 30.3416 93.9154 30.8832L91.302 34.5154C91.1659 34.7046 90.968 34.8403 90.7425 34.8991L84.333 36.5694C84.0483 36.6436 83.8107 36.8394 83.6835 37.1046L79.897 44.9988C79.7603 45.2836 79.4972 45.4871 79.1871 45.5477L70.3552 47.2739C70.169 47.3103 69.9969 47.399 69.8592 47.5295L64.0999 52.9873C63.7356 53.3324 63.172 53.3542 62.7822 53.0382L58.5462 49.6038C58.2477 49.3618 57.8369 49.3122 57.4895 49.4763L43.4825 56.0896C43.2048 56.2207 42.8823 56.217 42.6078 56.0795L38.094 53.8192C37.8071 53.6755 37.4687 53.6783 37.1841 53.8266L33.0495 55.9815C32.9068 56.0559 32.7483 56.0947 32.5873 56.0947H23.5439C23.3349 56.0947 23.1312 56.0293 22.9614 55.9076L14.271 49.6796C13.8872 49.4045 13.3634 49.4354 13.0146 49.7536L9.09426 53.3293C8.91004 53.4973 8.6697 53.5904 8.42037 53.5904Z" fill="url(#paint1_linear_27_101)"/>
<path d="M2.17188 53.5904H8.41968C8.66902 53.5904 8.90936 53.4973 9.09357 53.3293L13.0139 49.7536C13.3627 49.4354 13.8865 49.4046 14.2703 49.6796L22.9607 55.9076C23.1305 56.0293 23.3342 56.0947 23.5432 56.0947H32.5866C32.7476 56.0947 32.9061 56.0559 33.0488 55.9815L37.0544 53.8938C37.4078 53.7096 37.8368 53.7529 38.1464 54.0038L42.505 57.5376C42.8282 57.7996 43.2797 57.8342 43.639 57.6245L57.4602 49.5564C57.8195 49.3467 58.271 49.3813 58.5942 49.6432L62.7816 53.0382C63.1713 53.3542 63.735 53.3324 64.0992 52.9873L69.8585 47.5295C69.9963 47.399 70.1683 47.3103 70.3545 47.2739L79.1865 45.5477C79.4965 45.4871 79.7597 45.2836 79.8963 44.9988L83.6828 37.1046C83.81 36.8394 84.0476 36.6436 84.3323 36.5694L90.7418 34.8991C90.9673 34.8403 91.1652 34.7046 91.3013 34.5154L93.9147 30.8832C94.3043 30.3416 95.105 30.3263 95.5151 30.8525L102.086 39.2826C102.337 39.6052 102.76 39.7422 103.153 39.6284L112.85 36.8205C113.143 36.7358 113.381 36.5221 113.497 36.2402L120.215 19.8986C120.394 19.4649 120.849 19.2133 121.311 19.2936L127.145 20.3071C127.505 20.3696 127.869 20.2313 128.097 19.9463L133.22 13.5381C133.519 13.1647 134.04 13.0548 134.464 13.2757L137.771 14.9994C138.212 15.2292 138.754 15.1002 139.045 14.6967L139.692 13.7977C140.038 13.3156 140.727 13.2403 141.17 13.636L147.71 19.4796C148.22 19.9357 149.028 19.7557 149.296 19.1261L155.597 4.3465C155.801 3.86984 156.334 3.62738 156.827 3.78788L165.083 6.47735C165.387 6.57623 165.719 6.52424 165.978 6.33742L173.112 1.18911C173.283 1.06617 173.487 1 173.697 1H184.106C184.516 1 184.885 1.25084 185.036 1.63261L188.419 10.1965C188.686 10.8735 189.564 11.0471 190.069 10.5227L196.827 3.50431" stroke="#F6543E" stroke-linecap="round"/>
<path opacity="0.1" d="M5.9194 50.0445L1 45.6376V60.3243C1 60.8766 1.44772 61.3243 2 61.3243H197C197.552 61.3243 198 60.8766 198 60.3243V8.99479L190.211 15.6364C189.774 16.0093 189.113 15.9378 188.766 15.48L181.356 5.7143C181.047 5.30673 180.48 5.19832 180.042 5.46305L178.27 6.53425C177.835 6.79737 177.272 6.69205 176.961 6.2895L173.451 1.74129C173.129 1.32425 172.539 1.22842 172.102 1.52221L169.121 3.52515C168.984 3.61692 168.827 3.67356 168.663 3.69006L156.323 4.9337C155.937 4.97257 155.609 5.23088 155.48 5.59655L149.225 23.3612C148.929 24.2033 147.762 24.2643 147.379 23.4578L141.419 10.8985C141.253 10.5496 140.901 10.3273 140.515 10.3273H134.679C134.21 10.3273 133.804 10.6536 133.703 11.1119L131.404 21.5348C131.303 21.9931 130.897 22.3194 130.428 22.3194H126.818C126.677 22.3194 126.537 22.2897 126.409 22.2321L121.532 20.0475C121.042 19.828 120.466 20.0347 120.227 20.5157L114.004 33.0596C113.699 33.6736 112.881 33.8061 112.398 33.3195L110.357 31.2624C109.887 30.7886 109.093 30.8995 108.771 31.484L106.948 34.7914C106.576 35.466 105.613 35.4845 105.216 34.8247L95.8956 19.3542C95.472 18.651 94.4285 18.7295 94.1149 19.4881L91.8816 24.8897C91.6989 25.3317 91.2288 25.5824 90.7599 25.4879L85.7408 24.4762C85.2822 24.3838 84.8208 24.6217 84.6301 25.0488L79.2493 37.0995C79.0998 37.4343 78.779 37.6604 78.4134 37.6888L70.9181 38.2698C70.6004 38.2945 70.3135 38.469 70.1456 38.7398L64.8774 47.2346C64.4392 47.9412 63.3803 47.8355 63.0904 47.0563L60.4048 39.8389C60.1443 39.1389 59.2364 38.9611 58.7312 39.511L44.3303 55.1854C43.8457 55.7128 42.9801 55.5748 42.6836 54.9228L36.8751 42.1507C36.5321 41.3965 35.4732 41.3627 35.0828 42.0935L31.5864 48.6374C31.4723 48.851 31.2845 49.0159 31.0579 49.1016L27.061 50.6121C26.5425 50.8081 25.9636 50.5449 25.7703 50.0254L22.3967 40.959C22.251 40.5674 21.8772 40.3077 21.4595 40.3077H18.7254C18.3898 40.3077 18.0765 40.1394 17.8914 39.8594L15.2361 35.8455C14.7988 35.1843 13.8028 35.2706 13.4856 35.9971L7.50311 49.6998C7.23049 50.3242 6.42689 50.4991 5.9194 50.0445Z" fill="url(#paint2_linear_27_101)"/>
<path d="M1 45.6376L5.9194 50.0445C6.42689 50.4991 7.23049 50.3242 7.50311 49.6998L13.4856 35.9971C13.8028 35.2706 14.7988 35.1843 15.2361 35.8455L17.8914 39.8594C18.0765 40.1394 18.3898 40.3077 18.7254 40.3077H21.4595C21.8772 40.3077 22.251 40.5674 22.3967 40.959L25.7703 50.0254C25.9636 50.5449 26.5425 50.8081 27.061 50.6121L31.0579 49.1016C31.2845 49.0159 31.4723 48.851 31.5864 48.6374L35.0828 42.0935C35.4732 41.3627 36.5321 41.3965 36.8751 42.1507L42.6836 54.9228C42.9801 55.5748 43.8457 55.7128 44.3303 55.1854L58.7312 39.511C59.2364 38.9611 60.1443 39.1389 60.4048 39.8389L63.0904 47.0563C63.3803 47.8355 64.4392 47.9412 64.8774 47.2346L70.1456 38.7398C70.3135 38.469 70.6004 38.2945 70.9181 38.2698L78.4134 37.6888C78.779 37.6604 79.0998 37.4343 79.2493 37.0995L84.6301 25.0488C84.8208 24.6217 85.2822 24.3838 85.7408 24.4763L90.7599 25.4879C91.2288 25.5824 91.6989 25.3317 91.8816 24.8897L94.1149 19.4881C94.4285 18.7295 95.472 18.651 95.8956 19.3542L105.216 34.8247C105.613 35.4845 106.576 35.466 106.948 34.7914L108.771 31.484C109.093 30.8995 109.887 30.7886 110.357 31.2624L112.398 33.3195C112.881 33.8061 113.699 33.6736 114.004 33.0596L120.227 20.5157C120.466 20.0347 121.042 19.828 121.532 20.0475L126.409 22.2321C126.537 22.2897 126.677 22.3194 126.818 22.3194H130.428C130.897 22.3194 131.303 21.9931 131.404 21.5348L133.703 11.1119C133.804 10.6536 134.21 10.3273 134.679 10.3273H140.515C140.901 10.3273 141.253 10.5496 141.419 10.8985L147.379 23.4578C147.762 24.2643 148.929 24.2033 149.225 23.3612L155.48 5.59655C155.609 5.23088 155.937 4.97257 156.323 4.9337L168.663 3.69006C168.827 3.67356 168.984 3.61692 169.121 3.52515L172.102 1.52221C172.539 1.22842 173.129 1.32425 173.451 1.74129L176.961 6.2895C177.272 6.69205 177.835 6.79737 178.27 6.53425L180.042 5.46305C180.48 5.19832 181.047 5.30673 181.356 5.7143L188.766 15.48C189.113 15.9378 189.774 16.0093 190.211 15.6364L198 8.99479" stroke="#6374C3" stroke-linecap="round"/>
<defs>
<linearGradient id="paint0_linear_27_101" x1="99.4999" y1="2.67578" x2="99.4999" y2="61.3244" gradientUnits="userSpaceOnUse">
<stop stop-color="#ECFBF6"/>
<stop offset="1" stop-color="#ECFBF6" stop-opacity="0"/>
</linearGradient>
<linearGradient id="paint1_linear_27_101" x1="99.5" y1="1" x2="99.5" y2="63" gradientUnits="userSpaceOnUse">
<stop stop-color="#FEF0EE"/>
<stop offset="1" stop-color="#FEF0EE" stop-opacity="0"/>
</linearGradient>
<linearGradient id="paint2_linear_27_101" x1="99.4999" y1="1" x2="99.4999" y2="61.3243" gradientUnits="userSpaceOnUse">
<stop stop-color="#F1F2F8"/>
<stop offset="1" stop-color="#F1F2F8" stop-opacity="0"/>
</linearGradient>
</defs>
</svg>
