<svg width="54" height="86" viewBox="0 0 54 86" fill="none" xmlns="http://www.w3.org/2000/svg">
<path fill-rule="evenodd" clip-rule="evenodd" d="M26.1582 1.06002C25.9676 1.51615 20.2085 11.1866 13.3601 22.5501C6.51172 33.9133 0.851512 43.3596 0.781482 43.5419C0.690537 43.779 4.41106 46.0935 13.8273 51.6574L27.0007 59.4411L40.1703 51.6532C49.6316 46.0581 53.304 43.771 53.2121 43.5313C52.7362 42.291 27.1269 0.230469 26.8474 0.230469C26.659 0.230469 26.3488 0.603649 26.1582 1.06002ZM0.812738 49.1399C1.32034 50.0077 26.8919 85.9867 26.9988 85.9834C27.1755 85.978 53.3197 49.0332 53.2187 48.9319C53.1233 48.8367 28.6859 63.2295 27.6664 63.9813L27.0416 64.4423L14.3889 56.9722C7.42987 52.8637 1.4792 49.3363 1.16524 49.134C0.644713 48.7986 0.613458 48.7991 0.812738 49.1399Z" fill="white"/>
</svg>
