<svg width="87" height="80" viewBox="0 0 87 80" fill="none" xmlns="http://www.w3.org/2000/svg">
<path d="M63.6075 0C68.62 0.0536501 72.751 1.2876 76.2383 4.34566C76.5909 4.65223 76.9971 4.94348 77.2117 5.33435C79.0128 8.56869 81.9405 10.73 84.6231 13.106C86.0563 14.3782 86.976 15.7961 86.7001 17.7429C86.4318 19.6589 86.1099 21.575 85.6884 23.4604C85.1519 25.8517 84.3471 28.1893 83.9179 30.5959C83.3738 33.6156 82.1398 36.2368 80.1164 38.4978C78.2923 40.5288 77.0277 40.6438 74.5445 39.5401C70.835 37.8847 67.0794 36.3288 63.3009 34.8649C61.9214 34.3284 61.1166 33.4394 61.0706 32.0904C60.9787 29.2623 61.0016 26.4342 61.1166 23.6061C61.2622 19.9732 60.9633 16.4016 59.8673 12.945C58.3115 8.0092 54.5866 5.8402 49.7121 5.18107C48.9687 5.08143 48.2712 4.72121 47.5508 4.47595C48.1333 3.97011 48.6621 3.39529 49.2982 2.97375C52.4713 0.866066 56.1348 0.643802 59.7677 0.306572C61.1779 0.168615 62.6188 0.076643 63.6075 0Z" fill="#7E38FF"/>
<path d="M86.7001 17.7429C86.976 15.7961 86.0563 14.3782 84.6231 13.106C84.1605 12.6962 83.6906 12.2929 83.2204 11.8893C80.9643 9.95268 78.7022 8.01094 77.2117 5.33435L86.7001 17.7429ZM86.7001 17.7429C86.4318 19.6589 86.1099 21.575 85.6884 23.4604L86.7001 17.7429ZM84.2915 13.4803C83.8415 13.0817 83.3801 12.6859 82.9151 12.2871C80.6567 10.35 78.3129 8.33968 76.7748 5.57762L76.7734 5.57499C76.7034 5.44746 76.5924 5.3194 76.4366 5.17493C76.3356 5.08119 76.2405 5.00172 76.1363 4.9147C76.0665 4.85637 75.9926 4.79465 75.9102 4.72296L75.9086 4.72159C72.5383 1.76606 68.5401 0.556286 63.6241 0.500213C63.3617 0.520478 63.0702 0.541689 62.7578 0.564426C61.8828 0.6281 60.8431 0.703756 59.8164 0.804197L59.8139 0.804438C59.6146 0.822933 59.4157 0.841082 59.2173 0.859187C55.7625 1.17447 52.4564 1.47618 49.5749 3.39024L49.5744 3.39055C49.2887 3.57992 49.0198 3.80855 48.7414 4.06259C48.6601 4.13676 48.5757 4.21531 48.4893 4.29595C48.597 4.33818 48.7007 4.37857 48.7974 4.41459C49.1433 4.54347 49.4623 4.64311 49.7785 4.6855L49.7791 4.68558C52.2685 5.0222 54.5038 5.74926 56.3252 7.05267C58.154 8.36143 59.5358 10.2303 60.3441 12.7943C61.4623 16.3211 61.7634 19.9536 61.6162 23.6261L61.6162 23.6264C61.5017 26.4435 61.4788 29.2591 61.5703 32.0735C61.5898 32.645 61.7666 33.0963 62.0707 33.4634C62.3805 33.8373 62.8459 34.1515 63.4822 34.3989C67.2674 35.8654 71.0302 37.4243 74.7476 39.0832C75.9717 39.6273 76.7929 39.8202 77.4942 39.7015C78.1827 39.5849 78.8597 39.1487 79.7439 38.1644C81.7018 35.9766 82.8969 33.4418 83.4257 30.5081L84.2915 13.4803ZM84.2915 13.4803C85.666 14.7004 86.4471 15.9645 86.205 17.6727L86.2049 17.6735C85.9379 19.5808 85.6182 21.4828 85.2005 23.351C84.9792 24.3374 84.7119 25.3137 84.4412 26.3026C84.3876 26.4983 84.3339 26.6944 84.2804 26.8913C83.9582 28.0765 83.6447 29.2807 83.4259 30.5072L84.2915 13.4803Z" stroke="url(#paint0_linear_321_2000)" stroke-opacity="0.5"/>
<path d="M19.5 13L17 26C17.8333 26.5 19.8 27.5 21 27.5H27.5C30 27.5 31 26 32.5 26C34 26 32.5 24 32.5 23C32.5 22 34.5 16 34.5 15.5V9.5L31 7H25L22.5 8.5L19.5 13Z" fill="#EB00FF"/>
<path d="M34.5 18.5V28.5L45 32.5L54.5 28L56 19.5L54 9.5L45 8.5L38 9.5L34.5 18.5Z" fill="#EB00FF"/>
<path d="M28.5 45.5L31 34L26 30.5L19.5 28.5L17 29.5L14.5 32.5L12.5 38V44.5V48L19.5 49L28.5 45.5Z" fill="#EB00FF"/>
<path d="M59.4826 22.5789C59.4826 25.5373 59.429 28.4957 59.498 31.4542C59.5669 34.2823 60.7089 35.5316 63.3378 36.436C66.1353 37.4017 68.8714 38.5513 71.6076 39.6933C72.236 39.9539 73.2247 40.1301 72.9258 41.2261C72.7189 41.9849 71.232 42.828 70.4349 42.644C69.9444 42.5291 69.4922 42.2685 69.0247 42.0922C66.9323 41.2875 64.8706 40.3677 62.7323 39.7239C58.9308 38.582 55.4436 40.2988 53.5811 43.717C52.8377 45.0813 51.6574 46.3076 50.4234 47.2733C48.7833 48.5685 47.9249 50.0018 48.0015 52.1324C48.0782 54.2401 47.9019 56.3631 47.8022 58.4708C47.7792 58.8847 47.7333 59.3982 47.4803 59.6741C47.0971 60.1033 46.5223 60.3716 46.0318 60.7088C45.8248 60.2183 45.5259 59.7431 45.4416 59.2296C45.342 58.6548 45.457 58.0493 45.434 57.4515C45.3727 55.8956 44.7518 55.3898 43.2496 55.635C41.142 55.9799 39.0419 56.3785 36.9189 56.6237C35.8996 56.7463 34.8036 56.7234 33.8072 56.5011C31.301 55.9493 28.6875 57.2982 26.2349 55.9952C25.844 55.7883 25.3305 55.8113 24.8706 55.7653C23.3838 55.6044 21.8969 55.4971 20.4177 55.2825C20.1034 55.2365 19.7585 54.8992 19.5593 54.608C18.5169 53.0828 17.076 52.7226 15.3286 52.9602C14.7461 53.0368 14.1099 52.8376 13.5198 52.6919C11.6804 52.2397 9.85625 51.7569 8.02448 51.274C6.85951 50.9675 5.67921 50.6839 4.52956 50.3083C3.8551 50.0861 3.77079 49.5266 4.16934 48.9747C4.66752 48.2926 5.18103 47.6105 5.76351 47.005C7.2044 45.5105 8.69894 44.0696 10.1552 42.5904C11.872 40.8429 12.3472 39.0265 11.1515 36.9341C9.64932 34.2976 10.0325 31.983 11.7647 29.745C14.4472 26.2884 15.98 22.326 17.053 18.1489C17.7198 15.5737 18.2793 12.9679 18.9155 10.3773C19.0534 9.80251 19.2987 9.25068 19.5133 8.69885C20.9388 5.05831 25.3841 3.31851 28.971 5.00466C30.274 5.6178 31.5539 6.28459 32.8722 6.86708C34.8879 7.74848 36.9496 7.75614 39.0879 7.2273C42.8817 6.29226 46.7522 6.37657 50.5767 6.9054C55.1983 7.54154 57.9498 10.3543 58.8005 14.8839C59.2757 17.4055 59.4137 19.996 59.7049 22.5559C59.6436 22.5636 59.5669 22.5712 59.4826 22.5789ZM43.9854 12.0865C44.1004 12.2091 44.223 12.3317 44.338 12.4544C44.0467 12.9832 43.7785 13.5274 43.4489 14.0332C41.2339 17.3978 39.1646 20.8008 40.0996 25.1311C40.1686 25.4377 39.8237 25.8362 39.6704 26.1964C39.3408 25.9742 38.8886 25.8286 38.7047 25.522C38.4748 25.1464 38.4365 24.6483 38.3598 24.1961C37.9766 22.0271 38.2295 19.9041 38.7277 17.781C38.8886 17.0759 38.95 16.1409 37.9919 16.0796C37.5857 16.0489 36.9189 16.7923 36.7273 17.3212C35.7693 19.8887 35.9379 22.5712 36.2368 25.2307C36.3824 26.5183 37.0109 27.7063 38.2602 28.1125C40.3295 28.7946 42.4602 29.5381 44.6062 29.6684C47.4497 29.837 49.9099 28.695 51.3661 25.9972C52.0329 24.7709 52.738 23.5599 53.4202 22.3413C55.3516 18.8924 54.6311 15.6887 52.3702 12.7456C49.5344 9.05907 44.7212 8.38461 41.2033 11.1208C40.8124 11.4273 40.7434 12.1478 40.5211 12.6766C41.0883 12.7456 41.6785 12.9525 42.215 12.8452C42.8128 12.7379 43.3876 12.3547 43.9854 12.0865ZM13.4815 42.5291C13.4508 45.7098 15.9111 47.7868 18.5706 46.8594C22.8243 45.3725 26.2425 42.713 28.2659 38.5973C29.6378 35.8075 28.8177 33.3549 26.0279 31.983C24.3418 31.1552 22.4794 30.5881 20.6399 30.2202C17.8884 29.6684 16.3326 30.8947 15.7041 33.6308C15.114 36.1754 14.4089 38.6969 13.7651 41.2338C13.6271 41.755 13.5275 42.2915 13.4815 42.5291ZM23.3071 26.3881C24.9243 26.0585 26.5414 25.7596 28.1433 25.384C29.7605 25.0085 31.0174 23.9815 31.3546 22.4256C32.0444 19.2526 32.6882 16.0336 32.8952 12.7992C33.0714 10.0631 31.2473 8.55323 28.4958 8.45359C25.7214 8.35396 24.0506 9.54959 22.9239 12.1784C21.7743 14.8533 20.479 17.4668 19.245 20.111C19.0994 20.4176 18.9308 20.7165 18.8082 21.0307C17.9804 23.1077 18.5399 24.6942 20.5786 25.6446C21.3987 26.0278 22.3414 26.1351 23.3071 26.3881Z" fill="#7E38FF"/>
<path d="M58.9826 22.1223L59.1524 22.1069C59.0831 21.4574 59.022 20.812 58.9612 20.1701C58.7952 18.4155 58.6316 16.6874 58.3092 14.9765L58.3091 14.9762C57.8984 12.7895 57.0365 11.054 55.7521 9.79115C54.4693 8.52978 52.7312 7.70667 50.5085 7.40073L50.5082 7.40069C46.7196 6.87682 42.9183 6.79828 39.208 7.71268L58.9826 22.1223ZM58.9826 22.1223V22.5789C58.9826 23.4733 58.9777 24.3703 58.9727 25.269C58.9614 27.3304 58.9499 29.4003 58.9981 31.4658L58.9981 31.4663C59.0342 32.9442 59.3526 34.0847 60.0674 34.9787C60.7761 35.8651 61.8228 36.4435 63.1746 36.9086M58.9826 22.1223L63.1746 36.9086M63.1746 36.9086C65.8581 37.8349 68.4867 38.9323 71.1304 40.0359L71.415 40.1547L71.4161 40.1552C71.5052 40.1921 71.5983 40.2266 71.6841 40.2582L71.7038 40.2654C71.785 40.2954 71.8609 40.3233 71.9356 40.3531C72.0997 40.4185 72.2251 40.4802 72.3168 40.5482C72.4029 40.612 72.4425 40.6687 72.4618 40.7244C72.4815 40.7813 72.4988 40.8916 72.4435 41.0946C72.4231 41.1692 72.355 41.2914 72.206 41.442C72.0624 41.5871 71.8705 41.7312 71.6546 41.8539C71.4389 41.9765 71.2132 42.0699 71.0076 42.1223C70.797 42.1761 70.6421 42.1783 70.549 42.1572C70.3493 42.1104 70.1472 42.0315 69.9211 41.9328C69.8644 41.9081 69.8046 41.8813 69.7425 41.8536C69.572 41.7774 69.385 41.6937 69.2024 41.6248C68.6051 41.3951 68.0038 41.1531 67.3983 40.9094C65.917 40.3133 64.4104 39.707 62.8765 39.2452L62.8762 39.2451C58.8205 38.0268 55.1033 39.8782 53.1421 43.4778C52.4414 44.7636 51.3151 45.9405 50.1153 46.8795L50.1135 46.8809C49.2575 47.5569 48.5777 48.2906 48.1253 49.1584C47.6705 50.0309 47.4608 51.0095 47.5018 52.1504L47.5018 52.1506C47.5598 53.7458 47.4711 55.3441 47.3811 56.9641C47.3538 57.4557 47.3264 57.9492 47.3029 58.4453C47.2915 58.6492 47.2757 58.8466 47.2386 59.0194C47.1999 59.2001 47.1497 59.2948 47.1118 59.3362L47.1117 59.3362L47.1074 59.3411C46.9613 59.5047 46.7671 59.65 46.5256 59.8055C46.4462 59.8566 46.3525 59.9142 46.2535 59.9751C46.2506 59.9769 46.2477 59.9787 46.2447 59.9805C46.2081 59.9041 46.174 59.8327 46.1458 59.7708C46.0406 59.5395 45.9664 59.3399 45.935 59.1486L45.9343 59.1442C45.8943 58.9135 45.8954 58.6642 45.9086 58.3716C45.9111 58.3149 45.9142 58.2557 45.9174 58.1946C45.9297 57.9576 45.9436 57.6918 45.9336 57.4322L45.9336 57.4318C45.9015 56.6183 45.7225 55.9144 45.201 55.4827C44.6773 55.0491 43.9575 55.0128 43.1691 55.1416L43.1689 55.1416C42.6157 55.2321 42.0658 55.3258 41.5178 55.4192C39.9614 55.6844 38.4202 55.947 36.8615 56.127L36.8592 56.1273C35.8854 56.2444 34.8475 56.2209 33.9161 56.0131L33.9147 56.0128C32.7841 55.7638 31.6263 55.8746 30.5623 55.9764C30.3577 55.996 30.1565 56.0152 29.9597 56.0315C28.7017 56.1357 27.5606 56.1334 26.4695 55.5537L26.4688 55.5533C26.1905 55.406 25.8904 55.3513 25.6334 55.3229C25.503 55.3086 25.3727 55.3 25.2545 55.2925L25.2333 55.2912C25.1206 55.2841 25.0196 55.2777 24.9222 55.268C24.4168 55.2133 23.9177 55.1653 23.4225 55.1176C22.4372 55.0228 21.4668 54.9294 20.4901 54.7877C20.4666 54.7843 20.3876 54.7558 20.2671 54.6545C20.1556 54.5608 20.0493 54.4388 19.9721 54.3259C19.972 54.3258 19.972 54.3257 19.9719 54.3257L19.5593 54.608M63.1746 36.9086L14.521 52.4183C14.3158 52.3791 14.1166 52.328 13.9048 52.2736C13.8189 52.2516 13.7309 52.229 13.6396 52.2065L13.6392 52.2064C11.9051 51.7801 10.1843 51.3264 8.45307 50.8699L8.15193 50.7905L8.15173 50.7905C7.89905 50.724 7.6474 50.659 7.39682 50.5943C6.47812 50.357 5.57371 50.1234 4.68488 49.8331M19.5593 54.608C18.5169 53.0828 17.076 52.7226 15.3286 52.9602M19.5593 54.608C19.7585 54.8992 20.1034 55.2365 20.4177 55.2825L19.5593 54.608ZM15.3286 52.9602L15.2633 52.4645C15.263 52.4645 15.2627 52.4645 15.2624 52.4646C15.262 52.4646 15.2616 52.4647 15.2612 52.4647L15.3286 52.9602ZM15.3286 52.9602C14.8263 53.0263 14.2841 52.8872 13.7659 52.7543C13.6831 52.733 13.601 52.712 13.5198 52.6919C11.7818 52.2647 10.0574 51.81 8.3274 51.3539L8.02448 51.274C7.77693 51.2089 7.52869 51.1448 7.28019 51.0806C6.35928 50.8428 5.43491 50.6041 4.52956 50.3083M4.52956 50.3083L4.68606 49.8335C4.68566 49.8333 4.68527 49.8332 4.68488 49.8331M4.52956 50.3083C3.8551 50.0861 3.77079 49.5266 4.16934 48.9747M4.52956 50.3083L4.68482 49.833C4.68484 49.8331 4.68486 49.8331 4.68488 49.8331M4.68488 49.8331L4.16934 48.9747M4.16934 48.9747C4.66752 48.2926 5.18103 47.6105 5.76351 47.005C6.60402 46.1332 7.46279 45.2797 8.32155 44.4261L4.16934 48.9747ZM26.2349 55.9952C27.6632 56.7541 29.1462 56.6134 30.6308 56.4726C31.6953 56.3717 32.7606 56.2706 33.8072 56.5011C34.8036 56.7234 35.8996 56.7463 36.9189 56.6237C38.492 56.442 40.0525 56.1761 41.6128 55.9102C42.1583 55.8173 42.7037 55.7244 43.2496 55.635C44.7518 55.3898 45.3727 55.8956 45.434 57.4515C45.443 57.686 45.4308 57.9218 45.4186 58.1564C45.3998 58.5197 45.3811 58.8803 45.4416 59.2296C45.4994 59.5817 45.6582 59.9158 45.8189 60.2492L26.2349 55.9952ZM26.2349 55.9952C25.9352 55.8366 25.5635 55.8131 25.1992 55.79C25.0882 55.783 24.978 55.776 24.8706 55.7653L26.2349 55.9952ZM39.4726 25.5076C39.4914 25.4745 39.5091 25.4426 39.5263 25.4099C39.5687 25.3298 39.592 25.2748 39.6031 25.2367C39.6051 25.2296 39.6065 25.2241 39.6073 25.2201C38.6321 20.6705 40.8272 17.1065 43.0306 13.7594M39.4726 25.5076L44.1003 12.8947C44.1789 12.7475 44.2576 12.6003 44.338 12.4544L43.9732 12.7963C43.9415 12.7625 43.909 12.7285 43.8754 12.6937C43.8145 12.7244 43.7536 12.7558 43.6911 12.788C43.6457 12.8114 43.5995 12.8352 43.5518 12.8595M39.4726 25.5076C39.438 25.4888 39.4076 25.4721 39.3833 25.458C39.2164 25.3615 39.1555 25.3014 39.1335 25.2647L39.1311 25.2609C39.0593 25.1436 39.007 24.9891 38.9641 24.785C38.9356 24.6494 38.9167 24.5241 38.8959 24.3861C38.8831 24.3014 38.8696 24.212 38.8528 24.1125L38.8522 24.1091C38.4855 22.0336 38.7241 19.9852 39.2145 17.8953L39.2152 17.8923C39.2982 17.5284 39.3797 17.0178 39.2638 16.565C39.2028 16.3263 39.0812 16.081 38.8572 15.8909C38.6325 15.7002 38.3477 15.6017 38.0262 15.5807M39.4726 25.5076L36.2589 17.1464C36.2586 17.147 36.2584 17.1477 36.2581 17.1484C36.3847 16.8007 36.6451 16.4252 36.9208 16.1419C37.0616 15.9971 37.2224 15.8598 37.3925 15.7576C37.5511 15.6624 37.7754 15.5629 38.0262 15.5807M43.0306 13.7594C43.0308 13.759 43.031 13.7586 43.0313 13.7583L43.4489 14.0332L43.03 13.7603C43.0302 13.76 43.0304 13.7597 43.0306 13.7594ZM43.0306 13.7594C43.2197 13.4689 43.3844 13.171 43.5518 12.8595M43.5518 12.8595C43.4784 12.8969 43.4016 12.9356 43.3191 12.9757C43.0161 13.1233 42.6746 13.27 42.308 13.3365M43.5518 12.8595L42.308 13.3365M42.308 13.3365C41.951 13.4069 41.5989 13.3698 41.2984 13.3204C41.1544 13.2967 41.0332 13.273 40.9205 13.2509C40.764 13.2203 40.6237 13.1928 40.4608 13.173L39.8038 13.0931L40.0602 12.4829C40.1048 12.3767 40.1445 12.254 40.1875 12.1104C40.1983 12.0741 40.2096 12.0356 40.2213 11.9958C40.253 11.8875 40.2877 11.7692 40.3242 11.6587C40.4198 11.3687 40.5716 10.9807 40.8947 10.7273L40.8963 10.7261C44.6448 7.81062 49.7709 8.5465 52.7665 12.4407L52.7667 12.441C53.9334 13.9597 54.7261 15.5759 54.9626 17.2852C55.2001 19.0025 54.8705 20.7747 53.8564 22.5856C53.6023 23.0396 53.347 23.4891 53.0925 23.9371C52.6578 24.7024 52.2255 25.4634 51.8057 26.2354C50.2471 29.1223 47.592 30.3463 44.5766 30.1675L44.5759 30.1675C42.4956 30.0412 40.4376 29.3598 38.5046 28.7199C38.3707 28.6756 38.2375 28.6315 38.1049 28.5878C38.1044 28.5877 38.1041 28.5875 38.1036 28.5874L38.2602 28.1125L42.308 13.3365ZM38.0262 15.5807C38.0273 15.5808 38.0284 15.5809 38.0296 15.581L37.9919 16.0796L38.0239 15.5806C38.0246 15.5806 38.0254 15.5807 38.0262 15.5807ZM11.5856 36.6861C10.8768 35.4417 10.6308 34.308 10.7425 33.2423C10.8547 32.1716 11.3334 31.1192 12.1601 30.0511C14.9 26.5203 16.4551 22.4859 17.5371 18.274C17.9296 16.7583 18.288 15.219 18.6451 13.6855C18.894 12.6164 19.1423 11.5501 19.401 10.4966L19.4017 10.494C19.5016 10.0778 19.6604 9.68071 19.8334 9.24814C19.8812 9.12872 19.9301 9.0066 19.9791 8.88062C21.2971 5.51562 25.4274 3.89147 28.7581 5.45707C29.2458 5.68654 29.74 5.92855 30.2384 6.17262C31.0415 6.56588 31.8554 6.96445 32.6701 7.32443L32.6718 7.3252C34.8128 8.26138 36.9918 8.2607 39.2076 7.71278L11.5856 36.6861ZM46.4922 60.4155C46.481 60.4223 46.4698 60.4292 46.4586 60.4361L71.6076 39.6933C71.6922 39.7284 71.7834 39.7619 71.8771 39.7964C72.479 40.018 73.1845 40.2778 72.9258 41.2261C72.7189 41.9849 71.232 42.828 70.4349 42.644C70.1205 42.5703 69.8219 42.4368 69.5248 42.304C69.3584 42.2297 69.1926 42.1555 69.0247 42.0922C68.411 41.8562 67.8 41.6103 67.189 41.3643C65.7164 40.7717 64.2435 40.1789 62.7323 39.7239C58.9308 38.582 55.4436 40.2988 53.5811 43.717C52.8377 45.0813 51.6574 46.3076 50.4234 47.2733C48.7833 48.5685 47.9249 50.0018 48.0015 52.1324C48.0604 53.7529 47.9699 55.3824 47.8796 57.0071C47.8524 57.4956 47.8253 57.9836 47.8022 58.4708C47.7792 58.8847 47.7333 59.3982 47.4803 59.6741C47.213 59.9735 46.8524 60.1946 46.4922 60.4155ZM44.089 12.3172L43.9854 12.0865L43.6206 12.4284L44.089 12.3172ZM12.9906 42.4341L12.9819 42.4787L12.9815 42.5243C12.9649 44.244 13.623 45.7073 14.6937 46.616C15.771 47.5304 17.2364 47.8542 18.7352 47.3315L18.7356 47.3314C23.0916 45.8088 26.624 43.0705 28.7146 38.8179C29.4433 37.336 29.6159 35.8869 29.1814 34.5986C28.7466 33.3097 27.7319 32.2638 26.2486 31.5343L26.2483 31.5342C24.5144 30.683 22.6088 30.1041 20.7383 29.73C19.2763 29.4368 18.0446 29.6004 17.0853 30.2856C16.1357 30.9639 15.5456 32.0881 15.2169 33.5183C14.8352 35.1642 14.407 36.7933 13.9765 38.4314C13.743 39.3198 13.5089 40.2107 13.281 41.1084C13.1503 41.6025 13.0533 42.1077 13.0033 42.3681C12.9986 42.3923 12.9944 42.4143 12.9906 42.4341ZM23.1804 26.8717L23.293 26.9012L23.407 26.878C23.8508 26.7875 24.2968 26.699 24.744 26.6102C25.9138 26.378 27.0913 26.1442 28.2569 25.871C30.0101 25.4637 31.4548 24.3234 31.8432 22.5318C32.5333 19.3574 33.1846 16.1064 33.3941 12.8314C33.4903 11.3385 33.0389 10.1231 32.136 9.27357C31.2446 8.43483 29.9707 8.00667 28.5139 7.95392L28.5138 7.95391C27.049 7.90131 25.8254 8.19009 24.811 8.87925C23.8013 9.56518 23.0511 10.6124 22.4645 11.981C21.6668 13.837 20.8011 15.6583 19.93 17.4908C19.5501 18.2898 19.1693 19.0909 18.7927 19.898C18.7547 19.9778 18.7101 20.0665 18.6626 20.1608C18.5551 20.3744 18.4332 20.6165 18.343 20.8472C17.9008 21.9576 17.8015 23.0076 18.1504 23.936C18.5009 24.8687 19.2684 25.5854 20.3669 26.0976C20.8249 26.3116 21.3061 26.4435 21.7754 26.5523C21.9591 26.5949 22.1355 26.6328 22.3095 26.6703C22.5991 26.7327 22.882 26.7936 23.1804 26.8717Z" stroke="url(#paint1_linear_321_2000)" stroke-opacity="0.5"/>
<path d="M29.5469 80.0005C24.2892 79.464 19.0238 78.9659 13.7737 78.3834C10.4857 78.0155 7.95653 76.245 6.24739 73.5012C4.86781 71.2786 3.77948 68.8796 2.62983 66.519C2.44589 66.1435 2.6375 65.5916 2.66049 65.1165C3.174 65.1624 3.84079 65.0245 4.17802 65.3004C5.2127 66.1205 6.28571 66.3964 7.5963 66.3121C8.13281 66.2814 8.87624 66.7413 9.22114 67.2088C9.97224 68.2282 10.7157 68.8566 12.0953 68.4581C12.5015 68.3355 13.1836 68.6267 13.5361 68.9563C15.2989 70.5658 17.4449 70.9107 19.6829 70.903C20.9092 70.8953 21.9516 70.4585 22.603 69.2245C22.8483 68.757 23.5687 68.4351 24.1359 68.2971C24.3428 68.2512 24.818 68.9026 25.0096 69.3088C25.9753 71.3935 28.6962 71.861 30.4283 70.0829C31.3863 69.0942 32.0761 68.6114 33.3561 69.6231C34.2221 70.3129 35.3871 69.8453 36.1382 68.6574C36.6747 67.8066 37.2495 67.5154 38.2382 67.7836C39.3265 68.0825 40.1236 67.4617 40.7291 66.634C41.2503 65.9289 41.8251 65.7373 42.6988 65.9519C44.224 66.3274 44.8908 65.7909 45.5117 64.3347C45.8565 63.5376 46.5233 62.8632 47.1058 62.1887C49.2748 59.6748 52.3176 59.2456 55.345 58.7857C55.5979 58.7474 55.8508 58.7014 56.0961 58.6555C59.9742 57.935 60.779 56.9923 61.2388 53.0758C61.3921 51.8036 61.7677 50.5006 62.3195 49.3357C63.2009 47.4656 64.3122 45.7028 65.3239 43.8863C65.9064 42.844 66.7418 42.6371 67.7918 43.1429C67.9451 43.2195 68.106 43.2732 68.2593 43.3498C70.5739 44.4075 70.6583 44.6451 69.1254 46.6915C67.9298 48.2933 67.4316 50.1098 67.4162 52.0488C67.4009 54.9689 67.6615 57.8967 67.5082 60.8091C67.4086 62.6716 67.1327 64.6796 66.3126 66.3198C64.9943 68.9486 63.2929 71.4165 61.5224 73.7848C60.1275 75.6549 58.0811 76.5823 55.6669 76.6206C52.9154 76.6589 50.1639 76.7279 47.4201 76.9118C45.9485 77.0115 44.4003 77.1418 43.0667 77.6859C38.7134 79.4564 34.1991 79.7936 29.5929 79.6327C29.5699 79.7476 29.5546 79.8702 29.5469 80.0005Z" fill="#7E38FF"/>
<path d="M3.10448 65.6253C3.10297 65.6353 3.10148 65.6452 3.1 65.655C3.08612 65.747 3.07377 65.8288 3.06436 65.9116C3.03778 66.1453 3.0549 66.2502 3.07886 66.2991L3.07936 66.3001C3.28286 66.718 3.48372 67.1354 3.68398 67.5516C4.62332 69.5038 5.54934 71.4284 6.67194 73.2371C8.30888 75.8649 10.709 77.5372 13.8289 77.8864C17.4335 78.2863 21.0435 78.6463 24.6565 79.0066C26.1434 79.1549 27.6308 79.3032 29.1186 79.4543L29.1859 79.1181L29.6103 79.133C34.1835 79.2928 38.6175 78.9555 42.8778 77.223C44.297 76.6439 45.9241 76.512 47.3863 76.413L47.3866 76.4129C50.1436 76.2281 52.9054 76.159 55.6598 76.1206M3.10448 65.6253L55.6669 76.6206M3.10448 65.6253C3.13036 65.6248 3.1555 65.6243 3.18006 65.6239C3.28585 65.6219 3.38065 65.6201 3.47483 65.6221C3.74639 65.6278 3.83731 65.6677 3.8614 65.6874L3.86136 65.6874L3.86745 65.6922C5.01145 66.599 6.21047 66.9019 7.62616 66.8112M3.10448 65.6253L7.5963 66.3121M55.6598 76.1206C55.6598 76.1206 55.6599 76.1206 55.6599 76.1206L55.6669 76.6206M55.6598 76.1206C55.6595 76.1206 55.6592 76.1206 55.6589 76.1206L55.6669 76.6206M55.6598 76.1206C57.9404 76.0842 59.8318 75.215 61.1216 73.4858L61.1219 73.4854C62.8864 71.1252 64.5672 68.685 65.8656 66.0956M55.6669 76.6206C58.0811 76.5823 60.1275 75.6549 61.5224 73.7848C63.2929 71.4165 64.9943 68.9486 66.3126 66.3198M65.8656 66.0956C65.8656 66.0958 65.8655 66.096 65.8654 66.0961L66.3126 66.3198M65.8656 66.0956L66.3126 66.3198M65.8656 66.0956C66.6381 64.5504 66.9102 62.6275 67.0089 60.7825C67.0089 60.7826 67.0089 60.7827 67.0089 60.7828L67.5082 60.8091M66.3126 66.3198C67.1327 64.6796 67.4086 62.6716 67.5082 60.8091M67.5082 60.8091L67.0089 60.7824M67.5082 60.8091C67.6002 59.0619 67.5432 57.3091 67.4862 55.5558C67.4481 54.3866 67.4101 53.2171 67.4162 52.0488C67.4316 50.1098 67.9298 48.2933 69.1254 46.6915L67.0089 60.7824M67.0089 60.7824C67.0844 59.3482 67.0582 57.9057 67.0142 56.4469C67.0055 56.1576 66.996 55.8674 66.9866 55.5764C66.9485 54.4063 66.9101 53.2248 66.9163 52.0462L66.9163 52.0449C66.9323 50.0184 67.4549 48.0936 68.7247 46.3924L68.7252 46.3917C69.1107 45.8771 69.3692 45.5086 69.5196 45.2223C69.6724 44.9312 69.6625 44.818 69.6519 44.7782C69.6408 44.7364 69.5907 44.631 69.3124 44.4485C69.0396 44.2695 68.6344 44.071 68.0515 43.8046L68.0435 43.801L68.0357 43.7971C67.9775 43.7679 67.9153 43.7419 67.8341 43.7082L67.8282 43.7058C67.7543 43.6752 67.6632 43.6374 67.5717 43.5919C67.1135 43.3717 66.7741 43.3417 66.5208 43.4146C66.2728 43.4859 66.0099 43.684 65.7607 44.1296C65.7606 44.1298 65.7605 44.13 65.7604 44.1302L65.3239 43.8863C65.0111 44.4479 64.6888 45.0044 64.3667 45.5604C63.647 46.803 62.9284 48.0437 62.3195 49.3357L67.0089 60.7824ZM8.81861 67.5054C9.20368 68.028 9.6335 68.519 10.1922 68.8089C10.7769 69.1125 11.443 69.167 12.234 68.9385L12.234 68.9385L12.2398 68.9368C12.2868 68.9225 12.4328 68.9212 12.6616 69.0063C12.8746 69.0855 13.0738 69.2085 13.1947 69.3215L13.1947 69.3216L13.199 69.3255C15.0998 71.061 17.4007 71.4108 19.6846 71.403L19.686 71.403C20.3561 71.3988 21.0085 71.2773 21.594 70.9647C22.1847 70.6494 22.6769 70.1556 23.0452 69.458L23.0458 69.4568C23.1024 69.3488 23.2452 69.2109 23.4912 69.0745C23.6746 68.9729 23.884 68.8895 24.0851 68.829C24.115 68.8597 24.1504 68.8994 24.1902 68.9484C24.3354 69.1275 24.4795 69.3573 24.5568 69.5208C25.6792 71.9408 28.8251 72.4453 30.7864 70.4318L30.7874 70.4309C31.2774 69.9251 31.5995 69.6644 31.8975 69.5867C32.1348 69.5249 32.4664 69.5574 33.0454 70.0149C33.6264 70.4771 34.3193 70.5473 34.9609 70.3144C35.5844 70.0879 36.1428 69.5857 36.5608 68.9246L36.5611 68.9241C36.8043 68.5384 37.015 68.3478 37.2183 68.2593C37.4135 68.1743 37.6791 68.1501 38.1066 68.266C39.5029 68.6491 40.4878 67.8103 41.1317 66.9306C41.3528 66.6316 41.5508 66.4873 41.7442 66.4209C41.9407 66.3535 42.1981 66.3438 42.5796 66.4374C43.4061 66.6409 44.111 66.6246 44.7075 66.2554C45.2802 65.9009 45.6524 65.2791 45.971 64.5323C46.2249 63.9459 46.6743 63.4363 47.1741 62.8697C47.2758 62.7544 47.3796 62.6367 47.4842 62.5155L47.4844 62.5153C49.5001 60.1791 52.3198 59.7509 55.3604 59.2891L55.4199 59.2801C55.4199 59.2801 55.42 59.2801 55.42 59.2801C55.6819 59.2404 55.9417 59.1931 56.1881 59.1469L9.22114 67.2088M8.81861 67.5054L9.22114 67.2088M8.81861 67.5054C8.81867 67.5055 8.81872 67.5056 8.81878 67.5056L9.22114 67.2088M8.81861 67.5054C8.69491 67.3378 8.47988 67.1495 8.23205 67.0075C7.97698 66.8614 7.75733 66.8042 7.62616 66.8112M9.22114 67.2088C8.87624 66.7413 8.13281 66.2814 7.5963 66.3121M7.62616 66.8112C7.62691 66.8112 7.62766 66.8111 7.6284 66.8111L7.5963 66.3121M7.62616 66.8112C7.62572 66.8112 7.62527 66.8113 7.62483 66.8113L7.5963 66.3121M36.1382 68.6574C36.6747 67.8066 37.2495 67.5154 38.2382 67.7836C39.3265 68.0825 40.1236 67.4617 40.7291 66.634L36.1382 68.6574Z" stroke="url(#paint2_linear_321_2000)" stroke-opacity="0.5"/>
<path d="M49.5188 54.0022C49.5188 53.619 49.5571 53.2358 49.5111 52.8602C49.2352 50.7526 50.063 49.3193 51.7874 48.0241C53.121 47.02 54.2093 45.5408 55.0601 44.0693C56.6696 41.2795 60.5554 39.9766 63.4372 41.4634C64.2956 41.908 64.3109 42.5364 63.92 43.2645C63.1766 44.6441 62.4561 46.039 61.6284 47.3649C60.3485 49.4343 59.628 51.6723 59.5284 54.0789C59.4671 55.5734 58.7926 56.5008 57.367 56.7997C55.1291 57.2749 52.8834 57.6887 50.6378 58.0949C49.8484 58.2406 49.5648 57.7347 49.5495 57.0449C49.5265 56.0256 49.5418 55.0139 49.5418 53.9946C49.5341 54.0022 49.5265 54.0022 49.5188 54.0022Z" fill="#0094FF"/>
<path d="M50.0418 52.7874L50.0098 52.8194C50.009 52.8127 50.0082 52.8061 50.0074 52.7995L50.0074 52.7995L50.0069 52.7953C49.8799 51.8254 50.0091 51.0422 50.3472 50.3593C50.689 49.6691 51.2631 49.0432 52.0877 48.4239L52.0882 48.4235C53.4986 47.3616 54.6271 45.8172 55.493 44.3195L55.4932 44.3192C56.9799 41.7422 60.5817 40.553 63.2076 41.9076C63.5521 42.0861 63.635 42.2495 63.6573 42.3581C63.6849 42.493 63.653 42.7047 63.4797 43.0277C63.3459 43.276 63.2133 43.5238 63.0812 43.7708C62.4736 44.9067 61.8751 46.0256 61.2043 47.1002L61.2032 47.1019C59.8808 49.2398 59.1322 51.5606 59.0288 54.0582L59.0288 54.0584C59.0009 54.7381 58.8358 55.2317 58.5645 55.5808C58.2977 55.924 57.8876 56.1797 57.2644 56.3103L57.2632 56.3106C55.0332 56.7841 52.7941 57.1968 50.5488 57.6029L50.5471 57.6032C50.2728 57.6538 50.2023 57.5797 50.1784 57.5525C50.1223 57.4889 50.056 57.3334 50.0493 57.0338L50.0493 57.0337C50.0331 56.313 50.0361 55.5995 50.0393 54.8766C50.0405 54.5845 50.0418 54.2908 50.0418 53.9946V52.7874Z" stroke="url(#paint3_linear_321_2000)" stroke-opacity="0.5"/>
<path d="M19.0233 69.8821C17.9887 69.6982 16.9156 69.6215 15.9116 69.3149C14.0952 68.7401 13.6277 67.4602 14.647 65.8967C16.3025 63.3445 18.004 60.8152 19.7361 58.3013C20.0197 57.8951 20.5332 57.6422 20.9394 57.3203C21.0467 57.8645 21.246 58.4086 21.2537 58.9528C21.269 61.7809 21.1464 64.6167 21.2537 67.4449C21.315 69.4376 21.0237 69.8821 19.0233 69.8821Z" fill="#0094FF"/>
<path d="M15.0659 66.1697L15.0665 66.1688C16.7187 63.6217 18.4172 61.0968 20.1469 58.5864C20.2388 58.4553 20.3811 58.3308 20.5836 58.1852C20.5966 58.1759 20.6102 58.1662 20.6243 58.1563C20.6323 58.189 20.64 58.2207 20.6473 58.2514C20.7088 58.5124 20.7504 58.7416 20.7537 58.9578C20.7593 59.9973 20.7458 61.0498 20.7323 62.1079C20.7096 63.8888 20.6866 65.6854 20.7539 67.462C20.769 67.9536 20.7607 68.3161 20.7183 68.5897C20.6762 68.8605 20.6072 68.9994 20.5353 69.0815C20.4672 69.1594 20.3516 69.2376 20.1092 69.2949C19.8666 69.3524 19.533 69.3804 19.0667 69.382C18.714 69.3203 18.3746 69.2719 18.0443 69.2249C17.3549 69.1268 16.7055 69.0343 16.06 68.8375C15.231 68.5746 14.8269 68.1885 14.685 67.8036C14.544 67.4212 14.6031 66.8795 15.0659 66.1697Z" stroke="url(#paint4_linear_321_2000)" stroke-opacity="0.5"/>
<path d="M21.9805 60.7783C22.1414 59.9199 22.2181 59.2454 22.4097 58.6016C22.8849 57.0151 23.9579 56.4556 25.6593 56.8465C26.9776 57.153 27.4145 57.8965 27.2229 59.5596C26.9393 61.9432 25.8433 63.9819 24.4484 65.875C23.8276 66.7104 23.1991 66.6031 22.9385 65.5838C22.517 63.9513 22.2717 62.2805 21.9805 60.7783Z" fill="#0094FF"/>
<path d="M23.4229 65.4599L23.4226 65.4588C23.1299 64.325 22.9256 63.1833 22.7268 62.0727C22.6485 61.635 22.571 61.2022 22.4893 60.7765C22.5357 60.5242 22.5742 60.2952 22.61 60.0824C22.6954 59.5748 22.7651 59.1602 22.8888 58.7446C23.1018 58.0338 23.4237 57.6305 23.8107 57.4233C24.2051 57.2121 24.762 57.1535 25.5467 57.3336C26.1337 57.4702 26.4206 57.6787 26.5745 57.9448C26.7426 58.2351 26.8181 58.7032 26.7263 59.5015C26.4569 61.7635 25.4154 63.7196 24.0465 65.5776C23.9157 65.7534 23.8052 65.8508 23.7272 65.8982C23.6861 65.9232 23.6615 65.9304 23.6506 65.9323C23.6416 65.9266 23.6232 65.9117 23.5971 65.8768C23.5438 65.8058 23.478 65.6752 23.4229 65.4599ZM23.6439 65.9329C23.6439 65.9328 23.6447 65.9327 23.6462 65.9329C23.6447 65.933 23.6439 65.9329 23.6439 65.9329ZM23.6542 65.9344C23.6559 65.9349 23.6568 65.9354 23.6568 65.9354C23.6567 65.9355 23.6559 65.9353 23.6542 65.9344Z" stroke="url(#paint5_linear_321_2000)" stroke-opacity="0.5"/>
<path d="M8.66016 62.1484C8.80578 61.0217 9.22732 60.4929 10.3616 60.6309C11.5343 60.7688 12.7146 60.8225 13.8872 60.9451C14.9066 61.0524 15.4124 61.6272 14.8989 62.5853C14.1018 64.0568 13.2587 65.5283 12.2624 66.8619C11.5113 67.8659 10.6069 67.7203 10.124 66.563C9.51856 65.1375 9.13534 63.6276 8.66016 62.1484Z" fill="#0094FF"/>
<path d="M10.3013 61.1272L10.3032 61.1274C10.9003 61.1977 11.4973 61.2462 12.0855 61.2922C12.1438 61.2968 12.2021 61.3013 12.2603 61.3058C12.7911 61.3472 13.3141 61.3879 13.8352 61.4424C14.2859 61.4899 14.4877 61.6299 14.5554 61.7287C14.5988 61.7921 14.6668 61.9594 14.4587 62.3482C13.6641 63.815 12.8353 65.2598 11.8618 66.5627C11.5386 66.9946 11.2852 67.0458 11.1649 67.0282C11.0357 67.0093 10.7961 66.8753 10.5855 66.3705L10.5855 66.3705L10.5843 66.3675C10.1656 65.382 9.8602 64.3684 9.54542 63.3238C9.42438 62.9222 9.30196 62.5159 9.1712 62.1049C9.24244 61.6407 9.35853 61.3993 9.48713 61.2754C9.60093 61.1657 9.81144 61.0676 10.3013 61.1272Z" stroke="url(#paint6_linear_321_2000)" stroke-opacity="0.5"/>
<path d="M15.9652 59.8501C15.2984 59.7428 14.6239 59.6815 13.9648 59.5205C12.6772 59.214 12.4703 58.6621 13.206 57.5125C13.6199 56.8687 14.0798 56.2632 14.509 55.6348C15.5053 54.1862 16.632 53.8107 17.7969 54.5464C18.755 55.1519 19.1995 57.1216 18.6247 58.2329C18.0575 59.3059 17.2528 59.9574 15.9652 59.8501Z" fill="#0094FF"/>
<path d="M14.0834 59.0348L14.0834 59.0348L14.0806 59.0341C13.4409 58.8818 13.3163 58.7142 13.2945 58.6562C13.284 58.6283 13.2688 58.5592 13.3129 58.4088C13.3581 58.2548 13.4556 58.0502 13.6269 57.7824C13.8752 57.3963 14.1294 57.0396 14.3909 56.6727C14.5644 56.4293 14.7411 56.1815 14.9214 55.9174C15.387 55.2407 15.8391 54.8814 16.2471 54.7461C16.6319 54.6185 17.0499 54.666 17.53 54.9692C17.8496 55.1713 18.1528 55.6652 18.2978 56.3097C18.4408 56.9453 18.3964 57.5844 18.1815 58.0014C17.9225 58.4908 17.63 58.844 17.2912 59.0658C16.9644 59.2798 16.5601 59.3946 16.0249 59.3533C15.7973 59.3169 15.5799 59.2869 15.3687 59.2576C14.9254 59.1964 14.5095 59.1388 14.0834 59.0348Z" stroke="url(#paint7_linear_321_2000)" stroke-opacity="0.5"/>
<path d="M28.6712 64.043C29.4453 64.5488 30.388 64.8631 30.8172 65.5145C31.4073 66.4266 30.7099 68.6492 29.8898 69.3543C29.154 69.9905 27.4066 70.2587 26.6785 69.7529C26.3642 69.5383 25.9887 69.0784 26.0193 68.7642C26.142 67.5302 26.2723 66.258 26.7015 65.116C26.8701 64.6485 27.8205 64.4798 28.6712 64.043Z" fill="#0094FF"/>
<path d="M29.5638 68.9752L29.5628 68.9761C29.2958 69.2069 28.7817 69.4101 28.2146 69.4863C27.6318 69.5647 27.1709 69.4861 26.9637 69.3423L26.9638 69.3422L26.9605 69.34C26.8551 69.268 26.724 69.1419 26.6264 69.0053C26.5787 68.9385 26.5474 68.8807 26.5302 68.8374C26.5226 68.8181 26.5195 68.8059 26.5182 68.8002C26.6416 67.5593 26.7687 66.3584 27.1695 65.2919L27.1695 65.2919L27.1702 65.2901C27.1741 65.2844 27.1923 65.2608 27.2477 65.222C27.3298 65.1644 27.4519 65.1022 27.6262 65.0281C27.721 64.9878 27.8348 64.9431 27.9597 64.8941C28.1681 64.8122 28.4073 64.7183 28.641 64.6122C28.8349 64.7269 29.0393 64.8372 29.2285 64.9394C29.3726 65.0172 29.508 65.0903 29.6233 65.157C29.9967 65.3729 30.2515 65.5657 30.3984 65.7877C30.4745 65.9063 30.5325 66.1097 30.5366 66.407C30.5406 66.6982 30.4921 67.0368 30.3994 67.3826C30.2079 68.0971 29.8642 68.717 29.5638 68.9752Z" stroke="url(#paint8_linear_321_2000)" stroke-opacity="0.5"/>
<path d="M11.5283 53.5041C12.9462 53.4888 13.6054 54.4928 13.0535 55.4891C12.5477 56.4089 11.9422 57.2749 11.2984 58.1103C10.5856 59.0377 9.6276 58.8231 8.79218 58.3403C7.84947 57.7961 8.30933 57.022 8.71554 56.3782C9.18306 55.6348 9.67358 54.8837 10.2714 54.2552C10.6546 53.849 11.2524 53.6574 11.5283 53.5041Z" fill="#0094FF"/>
<path d="M12.6161 55.2469L12.6154 55.2482C12.1264 56.1373 11.5374 56.9811 10.9024 57.8051L10.902 57.8056C10.6359 58.1518 10.3614 58.2529 10.0891 58.2541C9.78405 58.2555 9.42681 58.1295 9.04239 57.9074L9.04215 57.9072C8.8653 57.8051 8.7967 57.717 8.76859 57.6632C8.74256 57.6134 8.7308 57.5544 8.74319 57.4659C8.77347 57.2497 8.92227 56.9875 9.13841 56.645L9.1388 56.6444C9.60686 55.9001 10.0741 55.1881 10.6337 54.5998L10.6351 54.5983C10.7686 54.4568 10.9544 54.3384 11.1667 54.2305C11.2695 54.1783 11.3703 54.1324 11.471 54.0866L11.4765 54.0841L11.4819 54.0816C11.5344 54.0577 11.591 54.032 11.6461 54.0054C12.1739 54.0243 12.4837 54.2176 12.6259 54.4122C12.7679 54.6066 12.8117 54.8938 12.6161 55.2469Z" stroke="url(#paint9_linear_321_2000)" stroke-opacity="0.5"/>
<path d="M32.6562 65.7216C32.7176 63.7978 33.1927 63.1694 34.7869 63.3073C35.2238 63.3456 35.9595 63.9435 35.9519 64.2654C35.9212 65.4687 35.7296 66.6873 35.4 67.8446C35.2927 68.2278 34.5876 68.703 34.1814 68.68C33.7676 68.6494 33.2387 68.1282 33.0471 67.6913C32.7865 67.1012 32.7789 66.3884 32.6562 65.7216Z" fill="#0094FF"/>
<path d="M34.9192 67.7077L34.9192 67.7077L34.9186 67.7098C34.9188 67.7088 34.9188 67.7089 34.9182 67.7102C34.9152 67.7166 34.8991 67.7504 34.8485 67.8071C34.7924 67.8699 34.7137 67.9385 34.6213 68.0014C34.5291 68.0643 34.4343 68.1139 34.351 68.1455C34.3099 68.1611 34.2756 68.1707 34.249 68.1759C34.2299 68.1797 34.2181 68.1806 34.2129 68.1808C34.167 68.1742 34.0385 68.1235 33.867 67.9678C33.7009 67.817 33.5675 67.6329 33.505 67.4905L33.5045 67.4894C33.4018 67.2567 33.3425 66.9844 33.2945 66.6617C33.2789 66.5564 33.2636 66.4374 33.2475 66.3125C33.2213 66.1082 33.193 65.8879 33.1578 65.6857C33.1917 64.7582 33.3287 64.2976 33.5265 64.0665C33.6902 63.8754 33.993 63.7405 34.7438 63.8055L34.7869 63.3073L34.7432 63.8054C34.763 63.8071 34.8257 63.8216 34.9271 63.8733C35.0222 63.9218 35.1252 63.9898 35.2194 64.0669C35.3149 64.1451 35.3877 64.2214 35.4313 64.2809C35.4395 64.2922 35.4458 64.3015 35.4505 64.3089C35.4165 65.4504 35.2325 66.6074 34.9192 67.7077ZM35.4628 64.3313C35.4628 64.3313 35.4624 64.3304 35.4617 64.3286C35.4626 64.3304 35.4629 64.3313 35.4628 64.3313Z" stroke="url(#paint10_linear_321_2000)" stroke-opacity="0.5"/>
<path d="M28.6035 61.314C28.8181 60.1567 28.9024 59.3519 29.117 58.5778C29.3776 57.6351 30.4813 57.0986 31.4546 57.3899C32.5506 57.7118 32.4127 58.5395 32.1904 59.3443C31.9758 60.1184 31.7152 60.8771 31.4163 61.6206C31.1021 62.4023 30.4276 62.7856 29.6918 62.4637C29.186 62.2414 28.8718 61.6129 28.6035 61.314Z" fill="#0094FF"/>
<path d="M29.5988 58.7114L29.5989 58.7111C29.7748 58.0751 30.5686 57.6467 31.3113 57.8689L31.3137 57.8696C31.5307 57.9333 31.648 58.0108 31.7126 58.0744C31.7732 58.134 31.8089 58.2019 31.828 58.291C31.8736 58.5034 31.8223 58.7989 31.7085 59.211C31.4993 59.9657 31.2449 60.7066 30.9524 61.4341L30.9524 61.4341C30.8294 61.7401 30.6536 61.9244 30.4846 62.0108C30.3269 62.0914 30.1321 62.1104 29.8926 62.0057C29.7558 61.9455 29.6135 61.8137 29.4512 61.6079C29.3826 61.521 29.3192 61.4326 29.2523 61.3394C29.2421 61.3252 29.2319 61.311 29.2216 61.2966C29.1946 61.2591 29.166 61.2195 29.1362 61.1795C29.1972 60.8388 29.2465 60.5367 29.2915 60.2608C29.3888 59.6644 29.4661 59.1902 29.5988 58.7114Z" stroke="url(#paint11_linear_321_2000)" stroke-opacity="0.5"/>
<path d="M8.13912 64.0731C7.86321 64.3337 7.47999 64.9775 7.10444 64.9775C6.53728 64.9775 5.54858 64.6019 5.47194 64.234C5.18836 62.9004 5.16537 61.4979 5.17303 60.1183C5.17303 59.8807 5.92414 59.3902 6.16173 59.4745C6.69057 59.6584 7.37269 60.057 7.52598 60.5168C7.86321 61.5515 7.91686 62.6782 8.13912 64.0731Z" fill="#0094FF"/>
<path d="M6.69683 60.301C6.92273 60.4601 7.02499 60.5966 7.05126 60.6738C7.2059 61.1489 7.29867 61.6546 7.38066 62.2304C7.41014 62.4374 7.43883 62.6589 7.46891 62.891C7.5107 63.2135 7.55517 63.5567 7.60818 63.9109C7.58055 63.9432 7.55407 63.975 7.52929 64.0048C7.51696 64.0196 7.50484 64.0343 7.49289 64.0487C7.42219 64.134 7.35734 64.2122 7.29042 64.2853C7.2116 64.3714 7.14914 64.4285 7.10111 64.4617C7.09078 64.4689 7.08278 64.4738 7.077 64.477C6.87829 64.4709 6.57333 64.4003 6.30056 64.2839C6.16099 64.2243 6.0535 64.1625 5.98563 64.11C5.96987 64.0978 5.95852 64.0879 5.9506 64.0805C5.69636 62.8542 5.66695 61.556 5.67247 60.2339C5.71387 60.1936 5.77601 60.1436 5.85136 60.0945C5.93643 60.039 6.0181 59.9978 6.07769 59.9761C6.28424 60.0552 6.50908 60.1688 6.69683 60.301ZM5.93477 64.0637C5.9348 64.0637 5.93524 64.0643 5.93601 64.0654C5.93512 64.0643 5.93474 64.0637 5.93477 64.0637Z" stroke="url(#paint12_linear_321_2000)" stroke-opacity="0.5"/>
<path d="M40.552 63.4296C40.4293 65.5909 39.7166 66.7712 38.7432 66.7559C37.7775 66.7406 37.2103 65.5833 37.333 63.8895C37.4173 62.7475 38.1147 62.2263 39.4483 62.2723C40.4677 62.3183 40.5673 62.9928 40.552 63.4296Z" fill="#0094FF"/>
<path d="M40.0524 63.407C40.0584 63.222 40.0334 63.075 39.9702 62.9789C39.9283 62.9151 39.8166 62.79 39.4283 62.7719C38.8196 62.7513 38.4465 62.8649 38.2248 63.0335C38.0189 63.19 37.8666 63.4531 37.8316 63.926C37.7743 64.7188 37.8836 65.3345 38.0787 65.7316C38.2676 66.116 38.5059 66.2521 38.7511 66.256L40.0524 63.407ZM40.0524 63.407C39.993 64.4453 39.7935 65.1944 39.5303 65.6649C39.2713 66.1276 38.9942 66.2598 38.7511 66.256L40.0524 63.407Z" stroke="url(#paint13_linear_321_2000)" stroke-opacity="0.5"/>
<path d="M9.28905 53.2826C8.34634 54.6852 7.55692 55.9728 6.61421 57.1378C6.43793 57.36 5.57187 57.2067 5.15799 56.9768C4.95872 56.8695 4.88974 56.0877 5.06602 55.7888C5.59486 54.8844 6.18501 53.9954 6.91312 53.2596C7.26568 52.8994 7.95546 52.8227 8.51496 52.7461C8.71423 52.7154 8.97482 53.0527 9.28905 53.2826Z" fill="#0094FF"/>
<path d="M8.5363 53.2986C8.56574 53.3235 8.59404 53.3485 8.62515 53.3763C8.47303 53.6053 8.32525 53.8298 8.18028 54.0499C7.5397 55.0229 6.95379 55.9128 6.28903 56.7443C6.23211 56.7483 6.14812 56.7457 6.04224 56.7314C5.84434 56.7046 5.64051 56.647 5.49614 56.5856C5.4853 56.5422 5.4752 56.4836 5.46951 56.414C5.46194 56.3212 5.46372 56.2277 5.47383 56.1499C5.48238 56.0842 5.49401 56.0516 5.49691 56.0435C5.49781 56.041 5.49786 56.0409 5.4967 56.0428L5.49765 56.0412C6.01896 55.1497 6.58421 54.3028 7.26852 53.6113L7.26852 53.6113L7.27045 53.6093C7.35097 53.5271 7.50475 53.4467 7.76113 53.3807C7.9837 53.3234 8.22661 53.2899 8.48251 53.2551C8.4967 53.266 8.51445 53.2802 8.5363 53.2986ZM6.34655 56.7356C6.34685 56.7358 6.34357 56.737 6.33585 56.7385C6.34239 56.7361 6.34626 56.7354 6.34655 56.7356Z" stroke="url(#paint14_linear_321_2000)" stroke-opacity="0.5"/>
<path d="M36.3284 58.7853C36.2365 61.0692 35.5773 61.7744 34.1901 61.5598C34.0215 61.5368 33.8452 61.5138 33.7073 61.4371C32.6879 60.8393 33.1401 59.9809 33.3624 59.1991C33.623 58.2794 34.0292 57.2754 35.2171 57.6356C35.7536 57.7966 36.1292 58.5707 36.3284 58.7853Z" fill="#0094FF"/>
<path d="M34.2665 61.0656L34.2666 61.0655L34.2577 61.0643C34.0675 61.0384 33.9937 61.0228 33.9537 61.002C33.7631 60.889 33.6744 60.7845 33.6299 60.7037C33.5855 60.6231 33.5646 60.5294 33.5689 60.4044C33.5735 60.2726 33.6055 60.1201 33.6595 59.9334C33.6856 59.8432 33.7146 59.752 33.7459 59.6535L33.748 59.6468C33.7794 59.5483 33.8131 59.4422 33.8433 59.3359L33.8434 59.3354C33.9746 58.8725 34.1176 58.4945 34.3172 58.2678C34.4074 58.1654 34.4979 58.1077 34.596 58.0805C34.6954 58.0531 34.8452 58.0453 35.072 58.1141L35.072 58.1141L35.0734 58.1145C35.1799 58.1465 35.3255 58.2657 35.5036 58.4961C35.5829 58.5987 35.6545 58.7039 35.7255 58.8083L35.7328 58.819C35.7355 58.8231 35.7384 58.8272 35.7413 58.8315C35.7651 58.8666 35.7918 58.9059 35.8201 58.9457C35.7628 59.9577 35.5837 60.5121 35.3553 60.7962C35.1614 61.0374 34.8658 61.1583 34.2665 61.0656Z" stroke="url(#paint15_linear_321_2000)" stroke-opacity="0.5"/>
<path d="M1.28906 54.6539C2.11681 53.6575 2.7836 52.6995 3.62668 51.9254C3.8796 51.6954 4.72267 51.8334 5.0829 52.094C5.30516 52.2473 5.27451 53.0444 5.09056 53.4123C4.69968 54.194 4.2015 54.9605 3.60368 55.5966C3.33543 55.8879 2.66864 56.0565 2.30842 55.9262C1.94053 55.8035 1.73359 55.2364 1.28906 54.6539Z" fill="#0094FF"/>
<path d="M4.72424 52.4598C4.73344 52.5086 4.74004 52.5791 4.73909 52.6672C4.73668 52.8885 4.68935 53.0966 4.64335 53.1886C4.26882 53.9377 3.79659 54.6612 3.23933 55.2542L3.23931 55.2542L3.23591 55.2579C3.19305 55.3044 3.0636 55.3851 2.86749 55.4348C2.66936 55.4852 2.52565 55.473 2.47849 55.456L2.47854 55.4558L2.46734 55.4521C2.46415 55.4506 2.44652 55.4412 2.41322 55.4072C2.36841 55.3616 2.3148 55.2921 2.24351 55.1851C2.20703 55.1304 2.16439 55.0628 2.11653 54.9869C2.05742 54.8932 1.99035 54.7868 1.91711 54.6766C2.08215 54.473 2.23887 54.2753 2.39085 54.0836C2.91299 53.425 3.37933 52.8368 3.93572 52.3205C3.94424 52.3186 3.9566 52.3162 3.97349 52.314C4.03948 52.3056 4.13467 52.3062 4.24847 52.3213C4.44248 52.3472 4.61707 52.4048 4.72424 52.4598ZM4.7092 52.4048C4.70934 52.4046 4.71068 52.4073 4.71279 52.4136C4.71012 52.4082 4.70907 52.4051 4.7092 52.4048Z" stroke="url(#paint16_linear_321_2000)" stroke-opacity="0.5"/>
<path d="M3.8087 60.9153C3.77805 61.4672 3.81637 61.9884 3.70907 62.4712C3.64775 62.7471 3.34885 63.1303 3.13424 63.1533C2.89665 63.1763 2.42146 62.8544 2.39847 62.6475C2.26051 61.5055 2.18387 60.3482 2.1992 59.1909C2.1992 58.9533 2.76636 58.4858 2.93497 58.5394C3.25687 58.6467 3.60943 59.0146 3.7014 59.3442C3.84703 59.85 3.78571 60.4172 3.8087 60.9153Z" fill="#0094FF"/>
<path d="M2.88534 62.5078C2.75843 61.434 2.6877 60.3508 2.69831 59.2707C2.72656 59.2333 2.77242 59.1844 2.82962 59.1352C2.85417 59.1141 2.87784 59.0956 2.89962 59.0797C2.94432 59.1109 2.99353 59.1521 3.04268 59.2036C3.14459 59.3104 3.20215 59.4153 3.21981 59.4786L3.21979 59.4786L3.22092 59.4825C3.27586 59.6733 3.29572 59.8907 3.30115 60.1434C3.30296 60.2272 3.30286 60.3304 3.30276 60.4396C3.30262 60.5986 3.30246 60.7701 3.30813 60.9126C3.29896 61.0892 3.29594 61.2736 3.29318 61.4426C3.29165 61.5358 3.29021 61.6244 3.28784 61.7044C3.28045 61.9547 3.26423 62.1681 3.22097 62.3627C3.21805 62.3759 3.2075 62.4085 3.18227 62.4559C3.15806 62.5013 3.12666 62.5484 3.09253 62.59C3.08084 62.6043 3.06972 62.6168 3.05945 62.6277C3.03115 62.6137 2.99969 62.5955 2.96804 62.5739C2.93263 62.5497 2.90477 62.5264 2.88534 62.5078ZM3.00061 62.6791C3.00062 62.679 3.00188 62.6781 3.00438 62.6768C3.00186 62.6785 3.00061 62.6792 3.00061 62.6791Z" stroke="url(#paint17_linear_321_2000)" stroke-opacity="0.5"/>
<path d="M44.8218 62.8392C44.4386 63.9275 44.5229 65.0006 43.3273 64.9699C42.331 64.9392 42.0781 64.0578 42.0704 63.2071C42.0628 62.3563 42.4766 61.5899 43.381 61.7048C43.9021 61.7738 44.3467 62.4406 44.8218 62.8392Z" fill="#0094FF"/>
<path d="M44.1115 62.8525C44.1555 62.8976 44.2013 62.9442 44.2488 62.9909C44.2021 63.1512 44.1628 63.3056 44.1271 63.4461C44.1214 63.4684 44.1158 63.4903 44.1103 63.5118C44.0443 63.7704 43.9906 63.9661 43.9216 64.1227C43.8554 64.2731 43.7917 64.3476 43.7298 64.3898C43.6713 64.4296 43.5634 64.4756 43.3415 64.4701C43.0237 64.46 42.8675 64.3322 42.7623 64.1481C42.636 63.9268 42.5739 63.5949 42.5704 63.2026C42.5672 62.8473 42.6543 62.564 42.7817 62.3964C42.8876 62.2572 43.0401 62.1659 43.3164 62.2007C43.4028 62.2125 43.5413 62.2883 43.7733 62.51C43.8566 62.5895 43.9375 62.6731 44.026 62.7645C44.0537 62.793 44.0821 62.8223 44.1115 62.8525Z" stroke="url(#paint18_linear_321_2000)" stroke-opacity="0.5"/>
<path d="M40.1085 58.5479C39.9169 59.2607 39.9246 59.8278 39.641 60.1037C39.3037 60.4333 38.7136 60.6479 38.2384 60.6326C38.0391 60.6326 37.7785 59.9505 37.6789 59.5519C37.6023 59.2453 37.7402 58.8928 37.7939 58.5555C37.9242 57.8044 38.2077 56.992 39.0891 57.2296C39.549 57.3522 39.8249 58.1493 40.1085 58.5479Z" fill="#0094FF"/>
<path d="M39.4561 58.4318C39.4919 58.497 39.5306 58.5667 39.5716 58.636C39.53 58.8166 39.4966 58.9925 39.4683 59.1414C39.4507 59.2346 39.435 59.3172 39.4206 59.3838C39.3631 59.649 39.3163 59.722 39.2923 59.7454L39.2915 59.7462C39.0945 59.9387 38.7384 60.0903 38.422 60.1256C38.4077 60.0991 38.3918 60.0676 38.3746 60.0308C38.2874 59.8432 38.2072 59.6037 38.164 59.4306C38.1525 59.3845 38.151 59.3066 38.179 59.1574C38.1908 59.0944 38.2052 59.0309 38.2221 58.9564C38.2247 58.9448 38.2274 58.9329 38.2302 58.9207C38.2493 58.8361 38.2709 58.7383 38.2871 58.6378C38.3507 58.2722 38.4397 57.9845 38.5621 57.8188C38.6159 57.746 38.6625 57.7157 38.7014 57.7018C38.7395 57.6882 38.816 57.6738 38.959 57.7124L38.959 57.7124L38.96 57.7126C38.96 57.7127 38.988 57.7218 39.0431 57.7789C39.1012 57.8389 39.1655 57.9272 39.2385 58.0464C39.2996 58.1462 39.357 58.2509 39.4191 58.3643C39.4312 58.3865 39.4435 58.409 39.4561 58.4318Z" stroke="url(#paint19_linear_321_2000)" stroke-opacity="0.5"/>
<path d="M41.6562 58.372C42.3614 57.6822 42.7599 56.9618 43.2734 56.8621C44.1472 56.6935 44.3388 57.5136 44.3234 58.2341C44.3005 59.0082 44.2008 59.9585 43.2044 59.8742C42.7369 59.8436 42.3384 59.0695 41.6562 58.372Z" fill="#0094FF"/>
<path d="M43.2734 56.8621L43.3682 57.3531C43.5082 57.3261 43.5741 57.3468 43.6 57.3586C43.6255 57.3703 43.6594 57.3951 43.6968 57.4611C43.784 57.6151 43.8305 57.888 43.8236 58.2213C43.8118 58.6158 43.7787 58.9461 43.6765 59.1632C43.6313 59.2593 43.584 59.3069 43.5403 59.3329C43.4981 59.3581 43.4143 59.3902 43.2466 59.376L43.2466 59.3759L43.2423 59.3756C43.2355 59.3733 43.2115 59.3634 43.1667 59.3288C43.0949 59.2734 43.0069 59.184 42.8908 59.0482C42.8284 58.9752 42.7566 58.8867 42.6773 58.7887C42.576 58.6637 42.4623 58.5234 42.3397 58.3806C42.4647 58.2428 42.5805 58.108 42.6843 57.9871C42.7668 57.8911 42.8417 57.8039 42.9076 57.731C43.1663 57.4448 43.2942 57.3674 43.3687 57.353L43.2734 56.8621ZM43.2734 56.8621C42.9342 56.928 42.6452 57.2647 42.2848 57.6845C42.0996 57.9002 41.8956 58.1379 41.6562 58.372L44.3234 58.2341C44.3388 57.5136 44.1472 56.6935 43.2734 56.8621Z" stroke="url(#paint20_linear_321_2000)" stroke-opacity="0.5"/>
<mask id="path-44-inside-1_321_2000" fill="white">
<path d="M0.536501 59.3987C0.344894 59.3374 0.275915 59.3221 0.268251 59.3068C0.176279 58.4867 0.0843074 57.6742 0 56.8541C0.222265 56.8695 0.582487 56.7928 0.65913 56.9001C1.21096 57.7279 1.05767 58.548 0.536501 59.3987Z"/>
</mask>
<path d="M0.536501 59.3987C0.344894 59.3374 0.275915 59.3221 0.268251 59.3068C0.176279 58.4867 0.0843074 57.6742 0 56.8541C0.222265 56.8695 0.582487 56.7928 0.65913 56.9001C1.21096 57.7279 1.05767 58.548 0.536501 59.3987Z" fill="#0094FF"/>
<path d="M0.536501 59.3987L0.23172 60.3512L0.979231 60.5904L1.38922 59.9211L0.536501 59.3987ZM0.268251 59.3068L-0.72552 59.4182L-0.705702 59.5949L-0.62618 59.754L0.268251 59.3068ZM0 56.8541L0.0688034 55.8565L-1.11623 55.7748L-0.994757 56.9564L0 56.8541ZM0.65913 56.9001L1.49119 56.3454L1.48224 56.332L1.47287 56.3189L0.65913 56.9001ZM0.841282 58.4463C0.788195 58.4293 0.74386 58.4156 0.708444 58.4047C0.669374 58.3927 0.651313 58.3873 0.636611 58.3826C0.614527 58.3755 0.642529 58.3835 0.682902 58.4009C0.702876 58.4095 0.761362 58.4353 0.830747 58.4818C0.867367 58.5064 0.92 58.5452 0.976174 58.6012C1.03245 58.6572 1.10394 58.7421 1.16268 58.8596L-0.62618 59.754C-0.512495 59.9813 -0.345492 60.1012 -0.28251 60.1434C-0.207137 60.1939 -0.140508 60.2239 -0.109996 60.237C-0.0485459 60.2636 0.0101133 60.282 0.0301833 60.2884C0.057635 60.2972 0.0932244 60.308 0.121217 60.3166C0.152863 60.3263 0.189003 60.3375 0.23172 60.3512L0.841282 58.4463ZM1.26202 59.1953C1.16985 58.3734 1.07848 57.5663 0.994757 56.7519L-0.994757 56.9564C-0.909868 57.7822 -0.817287 58.5999 -0.72552 59.4182L1.26202 59.1953ZM-0.0688034 57.8518C0.050864 57.86 0.16627 57.855 0.236544 57.8514C0.272688 57.8496 0.315176 57.8471 0.341659 57.8456C0.372816 57.8438 0.395518 57.8427 0.41423 57.8422C0.433156 57.8416 0.440535 57.8418 0.440119 57.8418C0.439443 57.8418 0.434746 57.8416 0.426784 57.8409C0.418957 57.8402 0.405573 57.8387 0.387866 57.8357C0.357948 57.8307 0.285605 57.8163 0.195825 57.7745C0.103683 57.7316 -0.037706 57.645 -0.154609 57.4814L1.47287 56.3189C1.21232 55.9541 0.829339 55.8821 0.722261 55.8639C0.57225 55.8385 0.431314 55.8408 0.354117 55.8431C0.278406 55.8454 0.172761 55.8521 0.135414 55.854C0.0732394 55.8571 0.0602684 55.8559 0.0688034 55.8565L-0.0688034 57.8518ZM-0.172925 57.4548C-0.0158443 57.6904 0.0184798 57.8793 0.00362998 58.0579C-0.0133298 58.2619 -0.102398 58.5273 -0.316215 58.8764L1.38922 59.9211C1.69657 59.4194 1.94473 58.8493 1.99675 58.2237C2.05088 57.5726 1.88593 56.9376 1.49119 56.3454L-0.172925 57.4548Z" fill="url(#paint21_linear_321_2000)" fill-opacity="0.5" mask="url(#path-44-inside-1_321_2000)"/>
<path d="M20.4258 22.6636C20.855 23.0391 21.2612 23.476 21.7517 23.7442C21.8513 23.7979 22.5488 23.2001 22.5488 22.8935C22.5871 20.6478 23.7904 18.9081 24.7944 17.0456C25.6528 15.4515 26.2813 13.7346 26.9481 12.0408C27.0554 11.7649 26.8485 11.3664 26.7872 11.0215C26.4499 11.1211 25.9977 11.1288 25.7908 11.351C25.4306 11.7419 25.17 12.2478 24.9401 12.7383C23.6525 15.4898 22.3802 18.2566 21.1079 21.0157C20.901 21.4756 20.7247 21.9431 20.4258 22.6636Z" fill="black"/>
<path d="M22.0497 22.8422C22.0444 22.8518 22.0364 22.8651 22.025 22.8819C21.9826 22.9441 21.9169 23.02 21.8396 23.0949C21.8141 23.1196 21.789 23.1426 21.7651 23.1635C21.6439 23.0784 21.5221 22.9792 21.3952 22.868C21.2927 22.7782 21.1912 22.6845 21.0842 22.5858L21.0829 22.5846C21.0628 22.566 21.0425 22.5473 21.0221 22.5284C21.0826 22.3801 21.1374 22.2447 21.1884 22.1185C21.3269 21.7757 21.4378 21.5012 21.5629 21.223C21.736 20.8476 21.9091 20.472 22.0822 20.0965C23.1814 17.7119 24.2814 15.3255 25.3928 12.9505L22.0497 22.8422ZM22.0497 22.8422C22.0967 20.8291 23.0246 19.1814 23.8913 17.6424C24.0495 17.3613 24.2058 17.0839 24.3542 16.8086L22.0497 22.8422ZM26.4273 11.6111C26.4342 11.6351 26.4407 11.6586 26.4469 11.6826C26.4824 11.8195 26.478 11.8657 26.479 11.8674C26.3821 12.1138 26.2863 12.3595 26.1909 12.6043C25.6252 14.056 25.072 15.4754 24.3543 16.8084L26.4273 11.6111ZM26.4273 11.6111C26.4022 11.6163 26.3778 11.6216 26.3535 11.6273C26.1959 11.664 26.1561 11.6938 26.1556 11.6931C26.1555 11.6931 26.156 11.6926 26.1567 11.6918L25.7908 11.351L26.1585 11.6899C25.8552 12.019 25.6218 12.4619 25.3928 12.9504L26.4273 11.6111Z" stroke="url(#paint22_linear_321_2000)" stroke-opacity="0.5"/>
<path d="M15.4668 42.8135C15.5818 42.3384 15.6891 41.8862 15.804 41.4416C16.4248 39.1577 17.0533 36.8814 17.6741 34.5974C17.7738 34.2295 17.8274 33.8463 17.927 33.4861C18.134 32.7503 18.5708 32.1678 19.3756 32.4667C20.2493 32.7886 19.6362 33.4324 19.5059 33.9613C19.1687 35.3025 18.8774 36.6668 18.5325 38.0004C18.019 39.9624 17.5132 41.9245 16.9154 43.8559C16.6931 44.5687 16.1566 44.4614 15.8117 43.8865C15.6201 43.58 15.5818 43.1738 15.4668 42.8135Z" fill="#0094FF"/>
<path d="M19.5059 33.9613L19.021 33.8394C18.8599 34.48 18.7153 35.0989 18.5719 35.7128C18.4041 36.4312 18.2378 37.1428 18.0486 37.8745C18.0123 38.0133 17.976 38.1521 17.9397 38.2908C17.4628 40.1151 16.9896 41.9249 16.4379 43.7075C16.4222 43.7575 16.4067 43.7941 16.3934 43.8201C16.351 43.784 16.2965 43.7228 16.2404 43.6293L16.2405 43.6293L16.2357 43.6215C16.1817 43.5352 16.1394 43.4179 16.0945 43.2448C16.0832 43.2012 16.0707 43.1489 16.057 43.0917C16.0355 43.0018 16.0111 42.8999 15.9842 42.8012C15.9946 42.7578 16.0051 42.7146 16.0154 42.6716C16.1073 42.2908 16.1947 41.928 16.2873 41.5698C16.5973 40.4294 16.9092 39.2908 17.2213 38.1516L17.2213 38.1516C17.5336 37.0116 17.8461 35.8711 18.1566 34.7286L18.1567 34.7281C18.2099 34.5318 18.2505 34.3339 18.2874 34.154L18.2904 34.1393C18.3291 33.9505 18.3642 33.7813 18.4087 33.6204C18.5013 33.2913 18.6265 33.0751 18.7509 32.9694C18.8357 32.8974 18.9521 32.8428 19.2015 32.9354L19.2027 32.9359C19.275 32.9625 19.3146 32.9855 19.3346 32.9997C19.3336 33.0067 19.332 33.0155 19.3295 33.0263C19.3121 33.1033 19.2728 33.1978 19.2065 33.3467C19.2031 33.3543 19.1997 33.3621 19.1961 33.3701C19.14 33.4958 19.0631 33.6684 19.0204 33.8417L19.5059 33.9613ZM19.5059 33.9613C19.5376 33.8327 19.5978 33.6973 19.6583 33.5614C19.8465 33.1384 20.0369 32.7104 19.3756 32.4667C18.5708 32.1678 18.134 32.7503 17.927 33.4861L18.4229 38.4194C18.4594 38.2797 18.496 38.14 18.5325 38.0004C18.7195 37.2774 18.8907 36.5453 19.062 35.8129C19.2067 35.1943 19.3515 34.5754 19.5059 33.9613ZM19.3526 33.0147C19.3526 33.0147 19.3523 33.0144 19.3517 33.0136L19.3526 33.0147ZM19.3365 32.9788C19.3363 32.9776 19.3363 32.9769 19.3364 32.9769L19.3365 32.9788Z" stroke="url(#paint23_linear_321_2000)" stroke-opacity="0.5"/>
<path d="M20.4258 22.6635C20.7247 21.9431 20.901 21.4679 21.1079 21.0157C22.3802 18.2566 23.6524 15.4898 24.94 12.7383C25.17 12.2478 25.4306 11.7419 25.7908 11.351C25.9977 11.1288 26.4499 11.1211 26.7871 11.0215C26.8485 11.3664 27.0631 11.7649 26.9481 12.0408C26.2813 13.727 25.6528 15.4514 24.7944 17.0456C23.7827 18.908 22.5794 20.6555 22.5488 22.8935C22.5411 23.2 21.8513 23.7902 21.7517 23.7442C21.2612 23.476 20.855 23.0391 20.4258 22.6635Z" fill="#0094FF"/>
<path d="M26.3535 11.6273C26.3785 11.6214 26.4037 11.616 26.4296 11.6106C26.4369 11.6357 26.4438 11.6601 26.4504 11.685C26.4853 11.8167 26.4808 11.8603 26.482 11.8605C26.4822 11.8605 26.4826 11.8593 26.4834 11.8571C26.4841 11.855 26.4851 11.8521 26.4866 11.8485L26.4865 11.8485L26.4831 11.857C26.3751 12.1302 26.2685 12.403 26.1624 12.6749C25.6063 14.0987 25.0602 15.4973 24.3546 16.8078C24.2102 17.0736 24.0587 17.3415 23.9054 17.6127C23.03 19.1608 22.0923 20.819 22.0497 22.8366C22.044 22.8468 22.0355 22.8608 22.0232 22.8786C21.9801 22.9412 21.914 23.0171 21.8368 23.092C21.8111 23.1168 21.7859 23.14 21.7617 23.1611C21.6416 23.0765 21.5209 22.9781 21.3952 22.868C21.2927 22.7782 21.1912 22.6845 21.0842 22.5857L21.0829 22.5845C21.0628 22.566 21.0425 22.5472 21.0219 22.5283C21.0827 22.379 21.1376 22.2427 21.1885 22.116C21.3271 21.7714 21.4373 21.4975 21.5623 21.2243C21.7356 20.8485 21.9089 20.4725 22.0822 20.0965C23.1814 17.7119 24.2814 15.3255 25.3928 12.9505C25.6218 12.462 25.8552 12.019 26.1585 11.6899L25.7908 11.351L26.1567 11.6918C26.1559 11.6926 26.1555 11.6931 26.1556 11.6931C26.1561 11.6938 26.1958 11.664 26.3535 11.6273ZM22.0584 22.8194C22.0588 22.8181 22.0591 22.8175 22.0591 22.8175L22.0584 22.8194Z" stroke="url(#paint24_linear_321_2000)" stroke-opacity="0.5"/>
<defs>
<linearGradient id="paint0_linear_321_2000" x1="67.1499" y1="0" x2="67.1499" y2="40.2351" gradientUnits="userSpaceOnUse">
<stop stop-color="white"/>
<stop offset="1" stop-color="#1E1E1E" stop-opacity="0"/>
</linearGradient>
<linearGradient id="paint1_linear_321_2000" x1="38.4552" y1="4.35742" x2="38.4552" y2="60.7088" gradientUnits="userSpaceOnUse">
<stop stop-color="white"/>
<stop offset="1" stop-color="#1E1E1E" stop-opacity="0"/>
</linearGradient>
<linearGradient id="paint2_linear_321_2000" x1="36.354" y1="42.8789" x2="36.354" y2="80.0005" gradientUnits="userSpaceOnUse">
<stop stop-color="white"/>
<stop offset="1" stop-color="#1E1E1E" stop-opacity="0"/>
</linearGradient>
<linearGradient id="paint3_linear_321_2000" x1="56.8126" y1="40.8418" x2="56.8126" y2="58.1201" gradientUnits="userSpaceOnUse">
<stop stop-color="white"/>
<stop offset="1" stop-color="#1E1E1E" stop-opacity="0"/>
</linearGradient>
<linearGradient id="paint4_linear_321_2000" x1="17.6891" y1="57.3203" x2="17.6891" y2="69.8821" gradientUnits="userSpaceOnUse">
<stop stop-color="white"/>
<stop offset="1" stop-color="#1E1E1E" stop-opacity="0"/>
</linearGradient>
<linearGradient id="paint5_linear_321_2000" x1="24.6231" y1="56.7266" x2="24.6231" y2="66.433" gradientUnits="userSpaceOnUse">
<stop stop-color="white"/>
<stop offset="1" stop-color="#1E1E1E" stop-opacity="0"/>
</linearGradient>
<linearGradient id="paint6_linear_321_2000" x1="11.881" y1="60.6094" x2="11.881" y2="67.5315" gradientUnits="userSpaceOnUse">
<stop stop-color="white"/>
<stop offset="1" stop-color="#1E1E1E" stop-opacity="0"/>
</linearGradient>
<linearGradient id="paint7_linear_321_2000" x1="15.8319" y1="54.1797" x2="15.8319" y2="59.8616" gradientUnits="userSpaceOnUse">
<stop stop-color="white"/>
<stop offset="1" stop-color="#1E1E1E" stop-opacity="0"/>
</linearGradient>
<linearGradient id="paint8_linear_321_2000" x1="28.5272" y1="64.043" x2="28.5272" y2="70.0172" gradientUnits="userSpaceOnUse">
<stop stop-color="white"/>
<stop offset="1" stop-color="#1E1E1E" stop-opacity="0"/>
</linearGradient>
<linearGradient id="paint9_linear_321_2000" x1="10.7431" y1="53.5039" x2="10.7431" y2="58.7541" gradientUnits="userSpaceOnUse">
<stop stop-color="white"/>
<stop offset="1" stop-color="#1E1E1E" stop-opacity="0"/>
</linearGradient>
<linearGradient id="paint10_linear_321_2000" x1="34.3041" y1="63.2891" x2="34.3041" y2="68.6808" gradientUnits="userSpaceOnUse">
<stop stop-color="white"/>
<stop offset="1" stop-color="#1E1E1E" stop-opacity="0"/>
</linearGradient>
<linearGradient id="paint11_linear_321_2000" x1="30.4739" y1="57.3105" x2="30.4739" y2="62.5778" gradientUnits="userSpaceOnUse">
<stop stop-color="white"/>
<stop offset="1" stop-color="#1E1E1E" stop-opacity="0"/>
</linearGradient>
<linearGradient id="paint12_linear_321_2000" x1="6.6555" y1="59.4648" x2="6.6555" y2="64.9775" gradientUnits="userSpaceOnUse">
<stop stop-color="white"/>
<stop offset="1" stop-color="#1E1E1E" stop-opacity="0"/>
</linearGradient>
<linearGradient id="paint13_linear_321_2000" x1="38.9349" y1="62.2695" x2="38.9349" y2="66.7561" gradientUnits="userSpaceOnUse">
<stop stop-color="white"/>
<stop offset="1" stop-color="#1E1E1E" stop-opacity="0"/>
</linearGradient>
<linearGradient id="paint14_linear_321_2000" x1="7.12695" y1="52.7441" x2="7.12695" y2="57.246" gradientUnits="userSpaceOnUse">
<stop stop-color="white"/>
<stop offset="1" stop-color="#1E1E1E" stop-opacity="0"/>
</linearGradient>
<linearGradient id="paint15_linear_321_2000" x1="34.6984" y1="57.5605" x2="34.6984" y2="61.5963" gradientUnits="userSpaceOnUse">
<stop stop-color="white"/>
<stop offset="1" stop-color="#1E1E1E" stop-opacity="0"/>
</linearGradient>
<linearGradient id="paint16_linear_321_2000" x1="3.26412" y1="51.8086" x2="3.26412" y2="55.9708" gradientUnits="userSpaceOnUse">
<stop stop-color="white"/>
<stop offset="1" stop-color="#1E1E1E" stop-opacity="0"/>
</linearGradient>
<linearGradient id="paint17_linear_321_2000" x1="3.00298" y1="58.5352" x2="3.00298" y2="63.1545" gradientUnits="userSpaceOnUse">
<stop stop-color="white"/>
<stop offset="1" stop-color="#1E1E1E" stop-opacity="0"/>
</linearGradient>
<linearGradient id="paint18_linear_321_2000" x1="43.4461" y1="61.6934" x2="43.4461" y2="64.9705" gradientUnits="userSpaceOnUse">
<stop stop-color="white"/>
<stop offset="1" stop-color="#1E1E1E" stop-opacity="0"/>
</linearGradient>
<linearGradient id="paint19_linear_321_2000" x1="38.8824" y1="57.1875" x2="38.8824" y2="60.6334" gradientUnits="userSpaceOnUse">
<stop stop-color="white"/>
<stop offset="1" stop-color="#1E1E1E" stop-opacity="0"/>
</linearGradient>
<linearGradient id="paint20_linear_321_2000" x1="42.9903" y1="56.8398" x2="42.9903" y2="59.8795" gradientUnits="userSpaceOnUse">
<stop stop-color="white"/>
<stop offset="1" stop-color="#1E1E1E" stop-opacity="0"/>
</linearGradient>
<linearGradient id="paint21_linear_321_2000" x1="0.503378" y1="56.8418" x2="0.503378" y2="59.3987" gradientUnits="userSpaceOnUse">
<stop stop-color="white"/>
<stop offset="1" stop-color="#1E1E1E" stop-opacity="0"/>
</linearGradient>
<linearGradient id="paint22_linear_321_2000" x1="23.7021" y1="11.0215" x2="23.7021" y2="23.7476" gradientUnits="userSpaceOnUse">
<stop stop-color="white"/>
<stop offset="1" stop-color="#1E1E1E" stop-opacity="0"/>
</linearGradient>
<linearGradient id="paint23_linear_321_2000" x1="17.6516" y1="32.3867" x2="17.6516" y2="44.3545" gradientUnits="userSpaceOnUse">
<stop stop-color="white"/>
<stop offset="1" stop-color="#1E1E1E" stop-opacity="0"/>
</linearGradient>
<linearGradient id="paint24_linear_321_2000" x1="23.7036" y1="11.0215" x2="23.7036" y2="23.7467" gradientUnits="userSpaceOnUse">
<stop stop-color="white"/>
<stop offset="1" stop-color="#1E1E1E" stop-opacity="0"/>
</linearGradient>
</defs>
</svg>
