<svg width="80" height="80" viewBox="0 0 80 80" fill="none" xmlns="http://www.w3.org/2000/svg">
<path d="M34.5471 79.9844C16.469 77.7187 2.28149 63.5312 0.0158631 45.4531C-0.156012 44.0625 0.937738 42.8125 2.34399 42.8125H11.8127C12.9534 42.8125 13.9377 43.6406 14.1252 44.7656C15.9534 55.5625 24.4221 64.0312 35.219 65.8594C36.344 66.0469 37.1721 67.0312 37.1721 68.1719V77.6562C37.1877 79.0469 35.969 80.1562 34.5471 79.9844Z" fill="#7E38FF"/>
<path d="M13.632 44.8478L13.6323 44.8491C15.4959 55.8557 24.1289 64.4887 35.1355 66.3524L35.1368 66.3526C36.0189 66.4996 36.6721 67.2739 36.6721 68.1719L36.6721 77.6562L36.6721 77.6619C36.6844 78.7487 35.7309 79.6231 34.6083 79.4881C16.7576 77.2505 2.74936 63.2421 0.512037 45.3914C0.376972 44.2966 1.24089 43.3125 2.34399 43.3125H11.8127C12.7107 43.3125 13.485 43.9657 13.632 44.8478Z" stroke="url(#paint0_linear_321_1981)" stroke-opacity="0.5"/>
<path d="M11.8284 37.5H2.34399C0.937738 37.5 -0.156012 36.2656 0.0158631 34.8594C2.50024 14.9844 19.4846 0 39.5315 0C48.4377 0 56.8753 2.90625 63.9378 8.39063C65.0628 9.26563 65.1409 10.9062 64.1565 11.9062L57.4534 18.6094C56.6409 19.4219 55.3752 19.5156 54.4377 18.8594C50.0471 15.7187 44.8909 14.0625 39.5315 14.0625C26.9221 14.0625 16.2346 23.0938 14.1409 35.5469C13.9377 36.6719 12.969 37.5 11.8284 37.5Z" fill="#0094FF"/>
<path d="M11.8284 37H2.34399C1.23937 37 0.376904 36.0299 0.512091 34.9207C2.96547 15.2965 19.7367 0.5 39.5315 0.5C48.3258 0.5 56.6554 3.3687 63.6308 8.7853C64.5124 9.47099 64.5807 10.7611 63.8014 11.5542C63.801 11.5546 63.8006 11.5551 63.8002 11.5555L57.0998 18.2558C56.4639 18.8918 55.4701 18.9704 54.7264 18.4511C50.2519 15.2511 44.9948 13.5625 39.5315 13.5625C26.6791 13.5625 15.7838 22.7685 13.6483 35.4608C13.486 36.3524 12.7201 37 11.8284 37Z" stroke="url(#paint1_linear_321_1981)" stroke-opacity="0.5"/>
<path d="M42.5 77.6559V68.1871C42.5 67.0465 43.3281 66.0621 44.4531 65.8746C56.8906 63.7653 65.9375 53.0778 65.9375 40.4684C65.9375 35.109 64.2812 29.9528 61.1406 25.5621C60.4844 24.6246 60.5781 23.359 61.3906 22.5465L68.0937 15.8434C69.0625 14.8746 70.7187 14.9371 71.6094 16.0621C77.0937 23.1246 80 31.5778 80 40.4684C80 60.5153 65.0156 77.4996 45.125 79.9684C43.6875 80.1559 42.5 79.0309 42.5 77.6559Z" fill="#EB00FF"/>
<path d="M44.5353 66.3678L44.5367 66.3676C57.2141 64.2175 66.4375 53.3223 66.4375 40.4684C66.4375 35.0051 64.7489 29.748 61.5489 25.2734C61.0296 24.5297 61.1082 23.536 61.7442 22.9001L68.4473 16.1969C69.2066 15.4376 70.5129 15.4847 71.216 16.3708C76.6317 23.3457 79.5 31.6904 79.5 40.4684C79.5 60.2634 64.7032 77.0346 45.0634 79.4722L45.0603 79.4726C43.9352 79.6193 43 78.7424 43 77.6559V68.1871C43 67.2891 43.6532 66.5149 44.5353 66.3678Z" stroke="url(#paint2_linear_321_1981)" stroke-opacity="0.5"/>
<path d="M30.625 30.625C30.625 29.3281 29.5781 28.2812 28.2812 28.2812H23.5938C22.2969 28.2812 21.25 29.3281 21.25 30.625V49.375C21.25 50.6719 22.2969 51.7188 23.5938 51.7188H28.2812C29.5781 51.7188 30.625 50.6719 30.625 49.375V30.625Z" fill="#EB00FF"/>
<path d="M28.2812 28.7812C29.302 28.7812 30.125 29.6043 30.125 30.625V49.375C30.125 50.3957 29.302 51.2188 28.2812 51.2188H23.5938C22.573 51.2188 21.75 50.3957 21.75 49.375V30.625C21.75 29.6043 22.573 28.7812 23.5938 28.7812H28.2812Z" stroke="url(#paint3_linear_321_1981)" stroke-opacity="0.5"/>
<path d="M44.6875 49.375V25.9375C44.6875 24.6406 43.6406 23.5938 42.3438 23.5938H37.6562C36.3594 23.5938 35.3125 24.6406 35.3125 25.9375V49.375C35.3125 50.6719 36.3594 51.7188 37.6562 51.7188H42.3438C43.625 51.7188 44.6875 50.6719 44.6875 49.375Z" fill="#813BFF"/>
<path d="M44.1875 25.9375V49.375C44.1875 50.3936 43.351 51.2188 42.3438 51.2188H37.6562C36.6355 51.2188 35.8125 50.3957 35.8125 49.375V25.9375C35.8125 24.9168 36.6355 24.0938 37.6562 24.0938H42.3438C43.3645 24.0938 44.1875 24.9168 44.1875 25.9375Z" stroke="url(#paint4_linear_321_1981)" stroke-opacity="0.5"/>
<path d="M58.75 49.375V40C58.75 38.7031 57.7031 37.6562 56.4062 37.6562H51.7188C50.4219 37.6562 49.375 38.7031 49.375 40V49.375C49.375 50.6719 50.4219 51.7188 51.7188 51.7188H56.4062C57.7031 51.7188 58.75 50.6719 58.75 49.375Z" fill="#0094FF"/>
<path d="M58.25 40V49.375C58.25 50.3957 57.427 51.2188 56.4062 51.2188H51.7188C50.698 51.2188 49.875 50.3957 49.875 49.375V40C49.875 38.9793 50.698 38.1562 51.7188 38.1562H56.4062C57.427 38.1562 58.25 38.9793 58.25 40Z" stroke="url(#paint5_linear_321_1981)" stroke-opacity="0.5"/>
<defs>
<linearGradient id="paint0_linear_321_1981" x1="18.5852" y1="42.8125" x2="18.5852" y2="80.002" gradientUnits="userSpaceOnUse">
<stop stop-color="white"/>
<stop offset="1" stop-color="#1E1E1E" stop-opacity="0"/>
</linearGradient>
<linearGradient id="paint1_linear_321_1981" x1="32.4201" y1="0" x2="32.4201" y2="37.5" gradientUnits="userSpaceOnUse">
<stop stop-color="white"/>
<stop offset="1" stop-color="#1E1E1E" stop-opacity="0"/>
</linearGradient>
<linearGradient id="paint2_linear_321_1981" x1="61.25" y1="15.1641" x2="61.25" y2="79.9889" gradientUnits="userSpaceOnUse">
<stop stop-color="white"/>
<stop offset="1" stop-color="#1E1E1E" stop-opacity="0"/>
</linearGradient>
<linearGradient id="paint3_linear_321_1981" x1="25.9375" y1="28.2812" x2="25.9375" y2="51.7188" gradientUnits="userSpaceOnUse">
<stop stop-color="white"/>
<stop offset="1" stop-color="#1E1E1E" stop-opacity="0"/>
</linearGradient>
<linearGradient id="paint4_linear_321_1981" x1="40" y1="23.5938" x2="40" y2="51.7188" gradientUnits="userSpaceOnUse">
<stop stop-color="white"/>
<stop offset="1" stop-color="#1E1E1E" stop-opacity="0"/>
</linearGradient>
<linearGradient id="paint5_linear_321_1981" x1="54.0625" y1="37.6562" x2="54.0625" y2="51.7188" gradientUnits="userSpaceOnUse">
<stop stop-color="white"/>
<stop offset="1" stop-color="#1E1E1E" stop-opacity="0"/>
</linearGradient>
</defs>
</svg>
