<svg width="7" height="14" viewBox="0 0 7 14" fill="none" xmlns="http://www.w3.org/2000/svg">
<path d="M5.93081 0.163272C6.11657 -0.0410566 6.43279 -0.0561151 6.63712 0.129639C6.84145 0.315393 6.85651 0.631617 6.67075 0.835945L5.93081 0.163272ZM0.800781 6.54961L0.430811 6.88595C0.257438 6.69523 0.257438 6.40398 0.430811 6.21327L0.800781 6.54961ZM6.67075 12.2633C6.8565 12.4676 6.84145 12.7838 6.63712 12.9696C6.43279 13.1553 6.11656 13.1403 5.93081 12.9359L6.67075 12.2633ZM6.67075 0.835945L1.17075 6.88595L0.430811 6.21327L5.93081 0.163272L6.67075 0.835945ZM1.17075 6.21327L6.67075 12.2633L5.93081 12.9359L0.430811 6.88595L1.17075 6.21327Z" fill="white"/>
</svg>
