<svg width="30" height="46" viewBox="0 0 30 46" fill="none" xmlns="http://www.w3.org/2000/svg">
<path d="M26.1094 23C28.1875 21.1719 29.5 18.4844 29.5 15.5C29.5 11.3125 26.9062 7.71875 23.25 6.23437V3C23.25 1.625 22.125 0.5 20.75 0.5C19.375 0.5 18.25 1.625 18.25 3V5.5H13.25V3C13.25 1.625 12.125 0.5 10.75 0.5C9.375 0.5 8.25 1.625 8.25 3V5.5H3.25C1.875 5.5 0.75 6.625 0.75 8C0.75 9.375 1.875 10.5 3.25 10.5H5.75V23V35.5H3.25C1.875 35.5 0.75 36.625 0.75 38C0.75 39.375 1.875 40.5 3.25 40.5H8.25V43C8.25 44.375 9.375 45.5 10.75 45.5C12.125 45.5 13.25 44.375 13.25 43V40.5H18.25V43C18.25 44.375 19.375 45.5 20.75 45.5C22.125 45.5 23.25 44.375 23.25 43V39.7656C26.9062 38.2812 29.5 34.6875 29.5 30.5C29.5 27.5156 28.1875 24.8281 26.1094 23ZM10.75 10.5H19.5C22.25 10.5 24.5 12.75 24.5 15.5C24.5 18.25 22.25 20.5 19.5 20.5H10.75V10.5ZM19.5 35.5H10.75V25.5H19.5C22.25 25.5 24.5 27.75 24.5 30.5C24.5 33.25 22.25 35.5 19.5 35.5Z" fill="white"/>
</svg>
